<mxfile host="app.diagrams.net" agent="Mozilla/5.0 (Macintosh; Intel Mac OS X 10_15_7) AppleWebKit/537.36 (KHTML, like Gecko) Chrome/134.0.0.0 Safari/537.36" version="26.0.14">
  <diagram id="C5RBs43oDa-KdzZeNtuy" name="Page-1">
    <mxGraphModel dx="954" dy="1774" grid="1" gridSize="10" guides="1" tooltips="1" connect="1" arrows="1" fold="1" page="1" pageScale="1" pageWidth="827" pageHeight="1169" math="0" shadow="0">
      <root>
        <mxCell id="WIyWlLk6GJQsqaUBKTNV-0" />
        <mxCell id="WIyWlLk6GJQsqaUBKTNV-1" parent="WIyWlLk6GJQsqaUBKTNV-0" />
        <mxCell id="00jODEar77DZwwpebo26-1" value="&lt;font style=&quot;font-size: 19px;&quot;&gt;Book&lt;/font&gt;" style="rounded=0;whiteSpace=wrap;html=1;" parent="WIyWlLk6GJQsqaUBKTNV-1" vertex="1">
          <mxGeometry x="230" y="160" width="120" height="60" as="geometry" />
        </mxCell>
        <mxCell id="00jODEar77DZwwpebo26-2" value="&lt;font style=&quot;font-size: 19px;&quot;&gt;Authors&lt;/font&gt;" style="rounded=0;whiteSpace=wrap;html=1;" parent="WIyWlLk6GJQsqaUBKTNV-1" vertex="1">
          <mxGeometry x="230" y="585" width="120" height="60" as="geometry" />
        </mxCell>
        <mxCell id="00jODEar77DZwwpebo26-3" value="&lt;u&gt;ISBN&lt;/u&gt;" style="ellipse;whiteSpace=wrap;html=1;" parent="WIyWlLk6GJQsqaUBKTNV-1" vertex="1">
          <mxGeometry x="130" y="10" width="70" height="40" as="geometry" />
        </mxCell>
        <mxCell id="00jODEar77DZwwpebo26-4" value="Title" style="ellipse;whiteSpace=wrap;html=1;" parent="WIyWlLk6GJQsqaUBKTNV-1" vertex="1">
          <mxGeometry x="400" y="50" width="70" height="40" as="geometry" />
        </mxCell>
        <mxCell id="00jODEar77DZwwpebo26-7" value="Year&lt;span style=&quot;color: rgba(0, 0, 0, 0); font-family: monospace; font-size: 0px; text-align: start; text-wrap-mode: nowrap;&quot;&gt;%3CmxGraphModel%3E%3Croot%3E%3CmxCell%20id%3D%220%22%2F%3E%3CmxCell%20id%3D%221%22%20parent%3D%220%22%2F%3E%3CmxCell%20id%3D%222%22%20value%3D%22Publisher%22%20style%3D%22ellipse%3BwhiteSpace%3Dwrap%3Bhtml%3D1%3B%22%20vertex%3D%221%22%20parent%3D%221%22%3E%3CmxGeometry%20x%3D%22370%22%20y%3D%2250%22%20width%3D%2270%22%20height%3D%2240%22%20as%3D%22geometry%22%2F%3E%3C%2FmxCell%3E%3C%2Froot%3E%3C%2FmxGraphModel%3E&lt;/span&gt;" style="ellipse;whiteSpace=wrap;html=1;" parent="WIyWlLk6GJQsqaUBKTNV-1" vertex="1">
          <mxGeometry x="440" y="110" width="70" height="40" as="geometry" />
        </mxCell>
        <mxCell id="00jODEar77DZwwpebo26-8" value="Price&lt;span style=&quot;color: rgba(0, 0, 0, 0); font-family: monospace; font-size: 0px; text-align: start; text-wrap-mode: nowrap;&quot;&gt;%3CmxGraphModel%3E%3Croot%3E%3CmxCell%20id%3D%220%22%2F%3E%3CmxCell%20id%3D%221%22%20parent%3D%220%22%2F%3E%3CmxCell%20id%3D%222%22%20value%3D%22Year%26lt%3Bspan%20style%3D%26quot%3Bcolor%3A%20rgba(0%2C%200%2C%200%2C%200)%3B%20font-family%3A%20monospace%3B%20font-size%3A%200px%3B%20text-align%3A%20start%3B%20text-wrap-mode%3A%20nowrap%3B%26quot%3B%26gt%3B%253CmxGraphModel%253E%253Croot%253E%253CmxCell%2520id%253D%25220%2522%252F%253E%253CmxCell%2520id%253D%25221%2522%2520parent%253D%25220%2522%252F%253E%253CmxCell%2520id%253D%25222%2522%2520value%253D%2522Publisher%2522%2520style%253D%2522ellipse%253BwhiteSpace%253Dwrap%253Bhtml%253D1%253B%2522%2520vertex%253D%25221%2522%2520parent%253D%25221%2522%253E%253CmxGeometry%2520x%253D%2522370%2522%2520y%253D%252250%2522%2520width%253D%252270%2522%2520height%253D%252240%2522%2520as%253D%2522geometry%2522%252F%253E%253C%252FmxCell%253E%253C%252Froot%253E%253C%252FmxGraphModel%253E%26lt%3B%2Fspan%26gt%3B%22%20style%3D%22ellipse%3BwhiteSpace%3Dwrap%3Bhtml%3D1%3B%22%20vertex%3D%221%22%20parent%3D%221%22%3E%3CmxGeometry%20x%3D%22440%22%20y%3D%22100%22%20width%3D%2270%22%20height%3D%2240%22%20as%3D%22geometry%22%2F%3E%3C%2FmxCell%3E%3C%2Froot%3E%3C%2FmxGraphModel%3E&lt;/span&gt;&lt;span style=&quot;color: rgba(0, 0, 0, 0); font-family: monospace; font-size: 0px; text-align: start; text-wrap-mode: nowrap;&quot;&gt;%3CmxGraphModel%3E%3Croot%3E%3CmxCell%20id%3D%220%22%2F%3E%3CmxCell%20id%3D%221%22%20parent%3D%220%22%2F%3E%3CmxCell%20id%3D%222%22%20value%3D%22Year%26lt%3Bspan%20style%3D%26quot%3Bcolor%3A%20rgba(0%2C%200%2C%200%2C%200)%3B%20font-family%3A%20monospace%3B%20font-size%3A%200px%3B%20text-align%3A%20start%3B%20text-wrap-mode%3A%20nowrap%3B%26quot%3B%26gt%3B%253CmxGraphModel%253E%253Croot%253E%253CmxCell%2520id%253D%25220%2522%252F%253E%253CmxCell%2520id%253D%25221%2522%2520parent%253D%25220%2522%252F%253E%253CmxCell%2520id%253D%25222%2522%2520value%253D%2522Publisher%2522%2520style%253D%2522ellipse%253BwhiteSpace%253Dwrap%253Bhtml%253D1%253B%2522%2520vertex%253D%25221%2522%2520parent%253D%25221%2522%253E%253CmxGeometry%2520x%253D%2522370%2522%2520y%253D%252250%2522%2520width%253D%252270%2522%2520height%253D%252240%2522%2520as%253D%2522geometry%2522%252F%253E%253C%252FmxCell%253E%253C%252Froot%253E%253C%252FmxGraphModel%253E%26lt%3B%2Fspan%26gt%3B%22%20style%3D%22ellipse%3BwhiteSpace%3Dwrap%3Bhtml%3D1%3B%22%20vertex%3D%221%22%20parent%3D%221%22%3E%3CmxGeometry%20x%3D%22440%22%20y%3D%22100%22%20width%3D%2270%22%20height%3D%2240%22%20as%3D%22geometry%22%2F%3E%3C%2FmxCell%3E%3C%2Froot%3E%3C%2FmxGraphModel%3E&lt;/span&gt;" style="ellipse;whiteSpace=wrap;html=1;" parent="WIyWlLk6GJQsqaUBKTNV-1" vertex="1">
          <mxGeometry x="100" y="60" width="70" height="40" as="geometry" />
        </mxCell>
        <mxCell id="00jODEar77DZwwpebo26-9" value="Category" style="ellipse;whiteSpace=wrap;html=1;container=1;" parent="WIyWlLk6GJQsqaUBKTNV-1" vertex="1">
          <mxGeometry x="40" y="100" width="70" height="40" as="geometry" />
        </mxCell>
        <mxCell id="00jODEar77DZwwpebo26-12" value="" style="endArrow=none;html=1;rounded=0;exitX=0.971;exitY=0.788;exitDx=0;exitDy=0;exitPerimeter=0;" parent="WIyWlLk6GJQsqaUBKTNV-1" source="00jODEar77DZwwpebo26-9" edge="1">
          <mxGeometry width="50" height="50" relative="1" as="geometry">
            <mxPoint x="180" y="240" as="sourcePoint" />
            <mxPoint x="230" y="190" as="targetPoint" />
          </mxGeometry>
        </mxCell>
        <mxCell id="00jODEar77DZwwpebo26-13" value="" style="endArrow=none;html=1;rounded=0;exitX=0.729;exitY=0.888;exitDx=0;exitDy=0;exitPerimeter=0;" parent="WIyWlLk6GJQsqaUBKTNV-1" source="00jODEar77DZwwpebo26-8" edge="1">
          <mxGeometry width="50" height="50" relative="1" as="geometry">
            <mxPoint x="118" y="101" as="sourcePoint" />
            <mxPoint x="240" y="159" as="targetPoint" />
          </mxGeometry>
        </mxCell>
        <mxCell id="00jODEar77DZwwpebo26-14" value="" style="endArrow=none;html=1;rounded=0;exitX=0.5;exitY=1;exitDx=0;exitDy=0;" parent="WIyWlLk6GJQsqaUBKTNV-1" source="00jODEar77DZwwpebo26-3" edge="1">
          <mxGeometry width="50" height="50" relative="1" as="geometry">
            <mxPoint x="210" y="100" as="sourcePoint" />
            <mxPoint x="260" y="160" as="targetPoint" />
          </mxGeometry>
        </mxCell>
        <mxCell id="00jODEar77DZwwpebo26-15" value="" style="endArrow=none;html=1;rounded=0;exitX=0.414;exitY=1.088;exitDx=0;exitDy=0;exitPerimeter=0;" parent="WIyWlLk6GJQsqaUBKTNV-1" source="00jODEar77DZwwpebo26-4" edge="1">
          <mxGeometry width="50" height="50" relative="1" as="geometry">
            <mxPoint x="280" y="90" as="sourcePoint" />
            <mxPoint x="315" y="160" as="targetPoint" />
          </mxGeometry>
        </mxCell>
        <mxCell id="00jODEar77DZwwpebo26-17" value="" style="endArrow=none;html=1;rounded=0;exitX=0;exitY=0.5;exitDx=0;exitDy=0;entryX=1;entryY=0.25;entryDx=0;entryDy=0;" parent="WIyWlLk6GJQsqaUBKTNV-1" source="00jODEar77DZwwpebo26-7" target="00jODEar77DZwwpebo26-1" edge="1">
          <mxGeometry width="50" height="50" relative="1" as="geometry">
            <mxPoint x="403" y="110" as="sourcePoint" />
            <mxPoint x="340" y="170" as="targetPoint" />
          </mxGeometry>
        </mxCell>
        <mxCell id="00jODEar77DZwwpebo26-18" value="Name" style="ellipse;whiteSpace=wrap;html=1;container=1;" parent="WIyWlLk6GJQsqaUBKTNV-1" vertex="1">
          <mxGeometry x="155" y="695" width="70" height="40" as="geometry" />
        </mxCell>
        <mxCell id="00jODEar77DZwwpebo26-20" value="&lt;u&gt;Author_ID&lt;/u&gt;" style="ellipse;whiteSpace=wrap;html=1;" parent="WIyWlLk6GJQsqaUBKTNV-1" vertex="1">
          <mxGeometry x="260" y="715" width="70" height="40" as="geometry" />
        </mxCell>
        <mxCell id="00jODEar77DZwwpebo26-21" value="" style="endArrow=none;html=1;rounded=0;entryX=0.183;entryY=1.025;entryDx=0;entryDy=0;entryPerimeter=0;exitX=0.632;exitY=0.015;exitDx=0;exitDy=0;exitPerimeter=0;" parent="WIyWlLk6GJQsqaUBKTNV-1" source="00jODEar77DZwwpebo26-18" target="00jODEar77DZwwpebo26-2" edge="1">
          <mxGeometry width="50" height="50" relative="1" as="geometry">
            <mxPoint x="200" y="685" as="sourcePoint" />
            <mxPoint x="250" y="635" as="targetPoint" />
          </mxGeometry>
        </mxCell>
        <mxCell id="00jODEar77DZwwpebo26-22" value="" style="endArrow=none;html=1;rounded=0;entryX=0.567;entryY=1.042;entryDx=0;entryDy=0;entryPerimeter=0;" parent="WIyWlLk6GJQsqaUBKTNV-1" target="00jODEar77DZwwpebo26-2" edge="1">
          <mxGeometry width="50" height="50" relative="1" as="geometry">
            <mxPoint x="290" y="715" as="sourcePoint" />
            <mxPoint x="370" y="685" as="targetPoint" />
          </mxGeometry>
        </mxCell>
        <mxCell id="00jODEar77DZwwpebo26-23" value="&lt;font style=&quot;font-size: 19px;&quot;&gt;Customer&lt;/font&gt;" style="rounded=0;whiteSpace=wrap;html=1;" parent="WIyWlLk6GJQsqaUBKTNV-1" vertex="1">
          <mxGeometry x="900" y="-70" width="120" height="60" as="geometry" />
        </mxCell>
        <mxCell id="00jODEar77DZwwpebo26-24" value="&lt;u&gt;Customer_ID&lt;/u&gt;" style="ellipse;whiteSpace=wrap;html=1;" parent="WIyWlLk6GJQsqaUBKTNV-1" vertex="1">
          <mxGeometry x="1050" y="-240" width="80" height="47.5" as="geometry" />
        </mxCell>
        <mxCell id="00jODEar77DZwwpebo26-25" value="&lt;span style=&quot;font-weight: normal;&quot;&gt;Name&lt;/span&gt;" style="ellipse;whiteSpace=wrap;html=1;container=1;fontStyle=1" parent="WIyWlLk6GJQsqaUBKTNV-1" vertex="1">
          <mxGeometry x="767.5" y="-200" width="72.5" height="35" as="geometry" />
        </mxCell>
        <mxCell id="00jODEar77DZwwpebo26-30" value="Address" style="ellipse;whiteSpace=wrap;html=1;" parent="WIyWlLk6GJQsqaUBKTNV-1" vertex="1">
          <mxGeometry x="1140" y="-130" width="70" height="40" as="geometry" />
        </mxCell>
        <mxCell id="00jODEar77DZwwpebo26-33" value="Type&lt;span style=&quot;color: rgba(0, 0, 0, 0); font-family: monospace; font-size: 0px; text-align: start; text-wrap-mode: nowrap;&quot;&gt;%3CmxGraphModel%3E%3Croot%3E%3CmxCell%20id%3D%220%22%2F%3E%3CmxCell%20id%3D%221%22%20parent%3D%220%22%2F%3E%3CmxCell%20id%3D%222%22%20value%3D%22Address%22%20style%3D%22ellipse%3BwhiteSpace%3Dwrap%3Bhtml%3D1%3B%22%20vertex%3D%221%22%20parent%3D%221%22%3E%3CmxGeometry%20x%3D%22890%22%20y%3D%22160%22%20width%3D%2270%22%20height%3D%2240%22%20as%3D%22geometry%22%2F%3E%3C%2FmxCell%3E%3C%2Froot%3E%3C%2FmxGraphModel%3E&lt;/span&gt;" style="ellipse;whiteSpace=wrap;html=1;direction=west;flipH=1;flipV=1;" parent="WIyWlLk6GJQsqaUBKTNV-1" vertex="1">
          <mxGeometry x="1019.37" y="-730" width="70" height="40" as="geometry" />
        </mxCell>
        <mxCell id="00jODEar77DZwwpebo26-34" value="SSV&lt;span style=&quot;color: rgba(0, 0, 0, 0); font-family: monospace; font-size: 0px; text-align: start; text-wrap-mode: nowrap;&quot;&gt;%3CmxGraphModel%3E%3Croot%3E%3CmxCell%20id%3D%220%22%2F%3E%3CmxCell%20id%3D%221%22%20parent%3D%220%22%2F%3E%3CmxCell%20id%3D%222%22%20value%3D%22Address%22%20style%3D%22ellipse%3BwhiteSpace%3Dwrap%3Bhtml%3D1%3B%22%20vertex%3D%221%22%20parent%3D%221%22%3E%3CmxGeometry%20x%3D%22890%22%20y%3D%22160%22%20width%3D%2270%22%20height%3D%2240%22%20as%3D%22geometry%22%2F%3E%3C%2FmxCell%3E%3C%2Froot%3E%3C%2FmxGraphModel%3E&lt;/span&gt;&lt;span style=&quot;color: rgba(0, 0, 0, 0); font-family: monospace; font-size: 0px; text-align: start; text-wrap-mode: nowrap;&quot;&gt;%3CmxGraphModel%3E%3Croot%3E%3CmxCell%20id%3D%220%22%2F%3E%3CmxCell%20id%3D%221%22%20parent%3D%220%22%2F%3E%3CmxCell%20id%3D%222%22%20value%3D%22Address%22%20style%3D%22ellipse%3BwhiteSpace%3Dwrap%3Bhtml%3D1%3B%22%20vertex%3D%221%22%20parent%3D%221%22%3E%3CmxGeometry%20x%3D%22890%22%20y%3D%22160%22%20width%3D%2270%22%20height%3D%2240%22%20as%3D%22geometry%22%2F%3E%3C%2FmxCell%3E%3C%2Froot%3E%3C%2FmxGraphModel%3E&lt;/span&gt;" style="ellipse;whiteSpace=wrap;html=1;direction=west;flipH=1;flipV=1;" parent="WIyWlLk6GJQsqaUBKTNV-1" vertex="1">
          <mxGeometry x="1109.37" y="-730" width="70" height="40" as="geometry" />
        </mxCell>
        <mxCell id="00jODEar77DZwwpebo26-35" value="&lt;u&gt;Card_#&lt;/u&gt;" style="ellipse;whiteSpace=wrap;html=1;direction=west;flipH=1;flipV=1;" parent="WIyWlLk6GJQsqaUBKTNV-1" vertex="1">
          <mxGeometry x="1196.87" y="-730" width="70" height="40" as="geometry" />
        </mxCell>
        <mxCell id="00jODEar77DZwwpebo26-36" value="Expiration" style="ellipse;whiteSpace=wrap;html=1;direction=west;flipH=1;flipV=1;" parent="WIyWlLk6GJQsqaUBKTNV-1" vertex="1">
          <mxGeometry x="1290.6200000000001" y="-730" width="70" height="40" as="geometry" />
        </mxCell>
        <mxCell id="00jODEar77DZwwpebo26-37" value="&lt;font style=&quot;font-size: 19px;&quot;&gt;Warehouse&lt;/font&gt;" style="rounded=0;whiteSpace=wrap;html=1;" parent="WIyWlLk6GJQsqaUBKTNV-1" vertex="1">
          <mxGeometry x="707" y="430" width="120" height="60" as="geometry" />
        </mxCell>
        <mxCell id="00jODEar77DZwwpebo26-39" value="&lt;u&gt;Address&lt;/u&gt;" style="ellipse;whiteSpace=wrap;html=1;" parent="WIyWlLk6GJQsqaUBKTNV-1" vertex="1">
          <mxGeometry x="770" y="307.5" width="70" height="40" as="geometry" />
        </mxCell>
        <mxCell id="00jODEar77DZwwpebo26-40" value="Capacity" style="ellipse;whiteSpace=wrap;html=1;" parent="WIyWlLk6GJQsqaUBKTNV-1" vertex="1">
          <mxGeometry x="842.5" y="335" width="70" height="40" as="geometry" />
        </mxCell>
        <mxCell id="00jODEar77DZwwpebo26-42" value="&lt;span style=&quot;font-size: 19px;&quot;&gt;Employee&lt;/span&gt;" style="rounded=0;whiteSpace=wrap;html=1;" parent="WIyWlLk6GJQsqaUBKTNV-1" vertex="1">
          <mxGeometry x="1676.25" y="766" width="120" height="60" as="geometry" />
        </mxCell>
        <mxCell id="00jODEar77DZwwpebo26-48" value="&lt;span style=&quot;font-size: 19px;&quot;&gt;Manager&lt;/span&gt;" style="rounded=0;whiteSpace=wrap;html=1;" parent="WIyWlLk6GJQsqaUBKTNV-1" vertex="1">
          <mxGeometry x="1350" y="850" width="120" height="60" as="geometry" />
        </mxCell>
        <mxCell id="00jODEar77DZwwpebo26-51" value="Name" style="ellipse;whiteSpace=wrap;html=1;container=1;" parent="WIyWlLk6GJQsqaUBKTNV-1" vertex="1">
          <mxGeometry x="2012.5" y="778.5" width="72.5" height="35" as="geometry" />
        </mxCell>
        <mxCell id="00jODEar77DZwwpebo26-53" value="SSN" style="ellipse;whiteSpace=wrap;html=1;" parent="WIyWlLk6GJQsqaUBKTNV-1" vertex="1">
          <mxGeometry x="1816.25" y="670" width="70" height="40" as="geometry" />
        </mxCell>
        <mxCell id="00jODEar77DZwwpebo26-54" value="&lt;u&gt;Employee_ID&lt;/u&gt;" style="ellipse;whiteSpace=wrap;html=1;" parent="WIyWlLk6GJQsqaUBKTNV-1" vertex="1">
          <mxGeometry x="1896.25" y="710" width="80" height="40" as="geometry" />
        </mxCell>
        <mxCell id="00jODEar77DZwwpebo26-55" value="&lt;font style=&quot;font-size: 19px;&quot;&gt;Order&lt;/font&gt;" style="rounded=0;whiteSpace=wrap;html=1;" parent="WIyWlLk6GJQsqaUBKTNV-1" vertex="1">
          <mxGeometry x="1620" y="147.5" width="120" height="60" as="geometry" />
        </mxCell>
        <mxCell id="00jODEar77DZwwpebo26-56" value="&lt;u&gt;Order_ID&lt;/u&gt;" style="ellipse;whiteSpace=wrap;html=1;" parent="WIyWlLk6GJQsqaUBKTNV-1" vertex="1">
          <mxGeometry x="1770" y="237.5" width="70" height="40" as="geometry" />
        </mxCell>
        <mxCell id="00jODEar77DZwwpebo26-59" value="Date_Placed" style="ellipse;whiteSpace=wrap;html=1;container=1;" parent="WIyWlLk6GJQsqaUBKTNV-1" vertex="1">
          <mxGeometry x="1802.5" y="157.5" width="75" height="40" as="geometry" />
        </mxCell>
        <mxCell id="00jODEar77DZwwpebo26-60" value="Total" style="ellipse;whiteSpace=wrap;html=1;" parent="WIyWlLk6GJQsqaUBKTNV-1" vertex="1">
          <mxGeometry x="1760" y="80" width="70" height="40" as="geometry" />
        </mxCell>
        <mxCell id="00jODEar77DZwwpebo26-61" value="&lt;font style=&quot;font-size: 17px;&quot;&gt;Written_By&lt;/font&gt;" style="rhombus;whiteSpace=wrap;html=1;" parent="WIyWlLk6GJQsqaUBKTNV-1" vertex="1">
          <mxGeometry x="240" y="350" width="90" height="90" as="geometry" />
        </mxCell>
        <mxCell id="00jODEar77DZwwpebo26-62" value="&lt;font&gt;Are_Purchased&lt;/font&gt;" style="rhombus;whiteSpace=wrap;html=1;" parent="WIyWlLk6GJQsqaUBKTNV-1" vertex="1">
          <mxGeometry x="550" y="147.5" width="100" height="90" as="geometry" />
        </mxCell>
        <mxCell id="00jODEar77DZwwpebo26-63" value="&lt;span style=&quot;font-size: 17px;&quot;&gt;Are_Stored&lt;/span&gt;" style="rhombus;whiteSpace=wrap;html=1;" parent="WIyWlLk6GJQsqaUBKTNV-1" vertex="1">
          <mxGeometry x="500" y="287.5" width="110" height="102.5" as="geometry" />
        </mxCell>
        <mxCell id="00jODEar77DZwwpebo26-64" value="&lt;span style=&quot;font-size: 17px;&quot;&gt;Has&lt;/span&gt;" style="rhombus;whiteSpace=wrap;html=1;" parent="WIyWlLk6GJQsqaUBKTNV-1" vertex="1">
          <mxGeometry x="1020" y="519" width="100" height="90" as="geometry" />
        </mxCell>
        <mxCell id="00jODEar77DZwwpebo26-65" value="&lt;font style=&quot;font-size: 15px;&quot;&gt;Is_Managed&lt;/font&gt;" style="rhombus;whiteSpace=wrap;html=1;" parent="WIyWlLk6GJQsqaUBKTNV-1" vertex="1">
          <mxGeometry x="890" y="705" width="100" height="90" as="geometry" />
        </mxCell>
        <mxCell id="00jODEar77DZwwpebo26-71" value="&lt;font style=&quot;font-size: 17px;&quot;&gt;Place&lt;/font&gt;" style="rhombus;whiteSpace=wrap;html=1;" parent="WIyWlLk6GJQsqaUBKTNV-1" vertex="1">
          <mxGeometry x="1241" y="55" width="100" height="90" as="geometry" />
        </mxCell>
        <mxCell id="00jODEar77DZwwpebo26-72" value="&lt;span style=&quot;font-size: 17px;&quot;&gt;Is_Fulfilled&lt;/span&gt;" style="rhombus;whiteSpace=wrap;html=1;" parent="WIyWlLk6GJQsqaUBKTNV-1" vertex="1">
          <mxGeometry x="1510" y="380" width="100" height="90" as="geometry" />
        </mxCell>
        <mxCell id="00jODEar77DZwwpebo26-73" value="Stock" style="ellipse;whiteSpace=wrap;html=1;" parent="WIyWlLk6GJQsqaUBKTNV-1" vertex="1">
          <mxGeometry x="30" y="187.5" width="70" height="40" as="geometry" />
        </mxCell>
        <mxCell id="HrWQXQLJa8o109kUoc0N-1" value="F_Name" style="ellipse;whiteSpace=wrap;html=1;" parent="WIyWlLk6GJQsqaUBKTNV-1" vertex="1">
          <mxGeometry x="30" y="705" width="70" height="40" as="geometry" />
        </mxCell>
        <mxCell id="HrWQXQLJa8o109kUoc0N-2" value="M_Name" style="ellipse;whiteSpace=wrap;html=1;" parent="WIyWlLk6GJQsqaUBKTNV-1" vertex="1">
          <mxGeometry x="50" y="765" width="70" height="40" as="geometry" />
        </mxCell>
        <mxCell id="HrWQXQLJa8o109kUoc0N-3" value="L_Name" style="ellipse;whiteSpace=wrap;html=1;" parent="WIyWlLk6GJQsqaUBKTNV-1" vertex="1">
          <mxGeometry x="130" y="790" width="70" height="40" as="geometry" />
        </mxCell>
        <mxCell id="HrWQXQLJa8o109kUoc0N-4" value="F_Name" style="ellipse;whiteSpace=wrap;html=1;" parent="WIyWlLk6GJQsqaUBKTNV-1" vertex="1">
          <mxGeometry x="637" y="-260" width="70" height="40" as="geometry" />
        </mxCell>
        <mxCell id="HrWQXQLJa8o109kUoc0N-5" value="M_Name" style="ellipse;whiteSpace=wrap;html=1;" parent="WIyWlLk6GJQsqaUBKTNV-1" vertex="1">
          <mxGeometry x="637" y="-200" width="70" height="40" as="geometry" />
        </mxCell>
        <mxCell id="HrWQXQLJa8o109kUoc0N-6" value="L_Name" style="ellipse;whiteSpace=wrap;html=1;" parent="WIyWlLk6GJQsqaUBKTNV-1" vertex="1">
          <mxGeometry x="640" y="-140" width="70" height="40" as="geometry" />
        </mxCell>
        <mxCell id="HrWQXQLJa8o109kUoc0N-10" value="F_Name" style="ellipse;whiteSpace=wrap;html=1;" parent="WIyWlLk6GJQsqaUBKTNV-1" vertex="1">
          <mxGeometry x="2138.75" y="721" width="70" height="40" as="geometry" />
        </mxCell>
        <mxCell id="HrWQXQLJa8o109kUoc0N-11" value="M_Name" style="ellipse;whiteSpace=wrap;html=1;" parent="WIyWlLk6GJQsqaUBKTNV-1" vertex="1">
          <mxGeometry x="2163.75" y="773.5" width="70" height="40" as="geometry" />
        </mxCell>
        <mxCell id="HrWQXQLJa8o109kUoc0N-12" value="L_Name" style="ellipse;whiteSpace=wrap;html=1;" parent="WIyWlLk6GJQsqaUBKTNV-1" vertex="1">
          <mxGeometry x="2151.25" y="831" width="70" height="40" as="geometry" />
        </mxCell>
        <mxCell id="HrWQXQLJa8o109kUoc0N-13" value="" style="endArrow=none;html=1;rounded=0;exitX=1;exitY=0.5;exitDx=0;exitDy=0;" parent="WIyWlLk6GJQsqaUBKTNV-1" source="00jODEar77DZwwpebo26-73" edge="1">
          <mxGeometry width="50" height="50" relative="1" as="geometry">
            <mxPoint x="118" y="142" as="sourcePoint" />
            <mxPoint x="230" y="200" as="targetPoint" />
          </mxGeometry>
        </mxCell>
        <mxCell id="HrWQXQLJa8o109kUoc0N-14" value="" style="endArrow=none;html=1;rounded=0;entryX=0.5;entryY=1;entryDx=0;entryDy=0;" parent="WIyWlLk6GJQsqaUBKTNV-1" target="00jODEar77DZwwpebo26-61" edge="1">
          <mxGeometry width="50" height="50" relative="1" as="geometry">
            <mxPoint x="280" y="585" as="sourcePoint" />
            <mxPoint x="330" y="535" as="targetPoint" />
          </mxGeometry>
        </mxCell>
        <mxCell id="HrWQXQLJa8o109kUoc0N-15" value="" style="endArrow=none;html=1;rounded=0;entryX=0.423;entryY=0.996;entryDx=0;entryDy=0;entryPerimeter=0;" parent="WIyWlLk6GJQsqaUBKTNV-1" target="00jODEar77DZwwpebo26-1" edge="1">
          <mxGeometry width="50" height="50" relative="1" as="geometry">
            <mxPoint x="280" y="368" as="sourcePoint" />
            <mxPoint x="330" y="317.5" as="targetPoint" />
          </mxGeometry>
        </mxCell>
        <mxCell id="HrWQXQLJa8o109kUoc0N-16" value="" style="endArrow=none;html=1;rounded=0;" parent="WIyWlLk6GJQsqaUBKTNV-1" edge="1">
          <mxGeometry width="50" height="50" relative="1" as="geometry">
            <mxPoint x="290" y="360" as="sourcePoint" />
            <mxPoint x="290" y="220" as="targetPoint" />
          </mxGeometry>
        </mxCell>
        <mxCell id="HrWQXQLJa8o109kUoc0N-17" value="N" style="text;html=1;align=center;verticalAlign=middle;whiteSpace=wrap;rounded=0;" parent="WIyWlLk6GJQsqaUBKTNV-1" vertex="1">
          <mxGeometry x="270" y="340" width="60" height="30" as="geometry" />
        </mxCell>
        <mxCell id="HrWQXQLJa8o109kUoc0N-18" value="M" style="text;html=1;align=center;verticalAlign=middle;whiteSpace=wrap;rounded=0;" parent="WIyWlLk6GJQsqaUBKTNV-1" vertex="1">
          <mxGeometry x="250" y="430" width="60" height="30" as="geometry" />
        </mxCell>
        <mxCell id="HrWQXQLJa8o109kUoc0N-21" value="" style="endArrow=none;html=1;rounded=0;entryX=0.5;entryY=1;entryDx=0;entryDy=0;exitX=0.5;exitY=0;exitDx=0;exitDy=0;" parent="WIyWlLk6GJQsqaUBKTNV-1" source="HrWQXQLJa8o109kUoc0N-3" target="00jODEar77DZwwpebo26-18" edge="1">
          <mxGeometry width="50" height="50" relative="1" as="geometry">
            <mxPoint x="280" y="900" as="sourcePoint" />
            <mxPoint x="190" y="744.9999999999995" as="targetPoint" />
          </mxGeometry>
        </mxCell>
        <mxCell id="HrWQXQLJa8o109kUoc0N-23" value="" style="endArrow=none;html=1;rounded=0;exitX=0.5;exitY=0;exitDx=0;exitDy=0;entryX=0;entryY=1;entryDx=0;entryDy=0;" parent="WIyWlLk6GJQsqaUBKTNV-1" target="00jODEar77DZwwpebo26-18" edge="1">
          <mxGeometry width="50" height="50" relative="1" as="geometry">
            <mxPoint x="110" y="772.5" as="sourcePoint" />
            <mxPoint x="154.58386083658365" y="736.1766605307021" as="targetPoint" />
          </mxGeometry>
        </mxCell>
        <mxCell id="HrWQXQLJa8o109kUoc0N-24" value="" style="endArrow=none;html=1;rounded=0;entryX=0;entryY=0.5;entryDx=0;entryDy=0;exitX=0.5;exitY=0;exitDx=0;exitDy=0;" parent="WIyWlLk6GJQsqaUBKTNV-1" target="00jODEar77DZwwpebo26-18" edge="1">
          <mxGeometry width="50" height="50" relative="1" as="geometry">
            <mxPoint x="95" y="715" as="sourcePoint" />
            <mxPoint x="140" y="714.9999999999995" as="targetPoint" />
          </mxGeometry>
        </mxCell>
        <mxCell id="HrWQXQLJa8o109kUoc0N-25" value="" style="endArrow=none;html=1;rounded=0;entryX=0.076;entryY=0.546;entryDx=0;entryDy=0;entryPerimeter=0;exitX=1.002;exitY=0.628;exitDx=0;exitDy=0;exitPerimeter=0;" parent="WIyWlLk6GJQsqaUBKTNV-1" source="00jODEar77DZwwpebo26-1" target="00jODEar77DZwwpebo26-62" edge="1">
          <mxGeometry width="50" height="50" relative="1" as="geometry">
            <mxPoint x="410" y="210" as="sourcePoint" />
            <mxPoint x="460" y="160" as="targetPoint" />
          </mxGeometry>
        </mxCell>
        <mxCell id="HrWQXQLJa8o109kUoc0N-27" value="" style="endArrow=none;html=1;rounded=0;exitX=1.002;exitY=0.628;exitDx=0;exitDy=0;exitPerimeter=0;entryX=1;entryY=0.75;entryDx=0;entryDy=0;" parent="WIyWlLk6GJQsqaUBKTNV-1" target="HrWQXQLJa8o109kUoc0N-28" edge="1">
          <mxGeometry width="50" height="50" relative="1" as="geometry">
            <mxPoint x="350" y="192.97" as="sourcePoint" />
            <mxPoint x="530" y="192" as="targetPoint" />
          </mxGeometry>
        </mxCell>
        <mxCell id="HrWQXQLJa8o109kUoc0N-28" value="N" style="text;html=1;align=center;verticalAlign=middle;whiteSpace=wrap;rounded=0;" parent="WIyWlLk6GJQsqaUBKTNV-1" vertex="1">
          <mxGeometry x="490" y="167.5" width="60" height="30" as="geometry" />
        </mxCell>
        <mxCell id="HrWQXQLJa8o109kUoc0N-29" value="" style="endArrow=none;html=1;rounded=0;exitX=1;exitY=0.5;exitDx=0;exitDy=0;entryX=0;entryY=0.75;entryDx=0;entryDy=0;" parent="WIyWlLk6GJQsqaUBKTNV-1" source="00jODEar77DZwwpebo26-62" target="00jODEar77DZwwpebo26-55" edge="1">
          <mxGeometry width="50" height="50" relative="1" as="geometry">
            <mxPoint x="630" y="210" as="sourcePoint" />
            <mxPoint x="1610" y="190" as="targetPoint" />
          </mxGeometry>
        </mxCell>
        <mxCell id="HrWQXQLJa8o109kUoc0N-31" value="" style="endArrow=none;html=1;rounded=0;exitX=0.75;exitY=0;exitDx=0;exitDy=0;entryX=0;entryY=1;entryDx=0;entryDy=0;" parent="WIyWlLk6GJQsqaUBKTNV-1" source="00jODEar77DZwwpebo26-23" target="00jODEar77DZwwpebo26-24" edge="1">
          <mxGeometry width="50" height="50" relative="1" as="geometry">
            <mxPoint x="1000" y="-130" as="sourcePoint" />
            <mxPoint x="1050" y="-180" as="targetPoint" />
          </mxGeometry>
        </mxCell>
        <mxCell id="HrWQXQLJa8o109kUoc0N-32" value="" style="endArrow=none;html=1;rounded=0;entryX=0;entryY=1;entryDx=0;entryDy=0;" parent="WIyWlLk6GJQsqaUBKTNV-1" edge="1">
          <mxGeometry width="50" height="50" relative="1" as="geometry">
            <mxPoint x="1020" y="-70" as="sourcePoint" />
            <mxPoint x="1140.450038143401" y="-155.74518343810382" as="targetPoint" />
          </mxGeometry>
        </mxCell>
        <mxCell id="HrWQXQLJa8o109kUoc0N-33" value="" style="endArrow=none;html=1;rounded=0;entryX=0;entryY=0.5;entryDx=0;entryDy=0;exitX=1;exitY=0.25;exitDx=0;exitDy=0;" parent="WIyWlLk6GJQsqaUBKTNV-1" source="00jODEar77DZwwpebo26-23" target="00jODEar77DZwwpebo26-30" edge="1">
          <mxGeometry width="50" height="50" relative="1" as="geometry">
            <mxPoint x="1030" y="-60" as="sourcePoint" />
            <mxPoint x="1150" y="-146" as="targetPoint" />
          </mxGeometry>
        </mxCell>
        <mxCell id="HrWQXQLJa8o109kUoc0N-34" value="" style="endArrow=none;html=1;rounded=0;entryX=0;entryY=0.5;entryDx=0;entryDy=0;exitX=1;exitY=0.5;exitDx=0;exitDy=0;" parent="WIyWlLk6GJQsqaUBKTNV-1" source="00jODEar77DZwwpebo26-23" edge="1">
          <mxGeometry width="50" height="50" relative="1" as="geometry">
            <mxPoint x="1030" y="-45" as="sourcePoint" />
            <mxPoint x="1140" y="-50" as="targetPoint" />
          </mxGeometry>
        </mxCell>
        <mxCell id="HrWQXQLJa8o109kUoc0N-35" value="" style="endArrow=none;html=1;rounded=0;" parent="WIyWlLk6GJQsqaUBKTNV-1" target="HrWQXQLJa8o109kUoc0N-41" edge="1">
          <mxGeometry width="50" height="50" relative="1" as="geometry">
            <mxPoint x="950" y="-70" as="sourcePoint" />
            <mxPoint x="949" y="-180" as="targetPoint" />
          </mxGeometry>
        </mxCell>
        <mxCell id="HrWQXQLJa8o109kUoc0N-36" value="" style="endArrow=none;html=1;rounded=0;exitX=0;exitY=0;exitDx=0;exitDy=0;entryX=0.716;entryY=0.952;entryDx=0;entryDy=0;entryPerimeter=0;" parent="WIyWlLk6GJQsqaUBKTNV-1" source="00jODEar77DZwwpebo26-23" target="00jODEar77DZwwpebo26-25" edge="1">
          <mxGeometry width="50" height="50" relative="1" as="geometry">
            <mxPoint x="958.75" y="-59.5" as="sourcePoint" />
            <mxPoint x="806.25" y="-150" as="targetPoint" />
          </mxGeometry>
        </mxCell>
        <mxCell id="HrWQXQLJa8o109kUoc0N-37" value="" style="endArrow=none;html=1;rounded=0;exitX=0.5;exitY=0;exitDx=0;exitDy=0;entryX=0;entryY=0;entryDx=0;entryDy=0;" parent="WIyWlLk6GJQsqaUBKTNV-1" source="00jODEar77DZwwpebo26-33" target="HrWQXQLJa8o109kUoc0N-43" edge="1">
          <mxGeometry width="50" height="50" relative="1" as="geometry">
            <mxPoint x="1095.62" y="-560" as="sourcePoint" />
            <mxPoint x="1120.62" y="-630" as="targetPoint" />
          </mxGeometry>
        </mxCell>
        <mxCell id="HrWQXQLJa8o109kUoc0N-38" value="" style="endArrow=none;html=1;rounded=0;exitX=0.5;exitY=0;exitDx=0;exitDy=0;entryX=0.25;entryY=0;entryDx=0;entryDy=0;" parent="WIyWlLk6GJQsqaUBKTNV-1" source="00jODEar77DZwwpebo26-34" target="HrWQXQLJa8o109kUoc0N-43" edge="1">
          <mxGeometry width="50" height="50" relative="1" as="geometry">
            <mxPoint x="1040.62" y="-670" as="sourcePoint" />
            <mxPoint x="1160.62" y="-650" as="targetPoint" />
          </mxGeometry>
        </mxCell>
        <mxCell id="HrWQXQLJa8o109kUoc0N-39" value="" style="endArrow=none;html=1;rounded=0;entryX=0.5;entryY=0;entryDx=0;entryDy=0;exitX=0.5;exitY=0;exitDx=0;exitDy=0;" parent="WIyWlLk6GJQsqaUBKTNV-1" source="HrWQXQLJa8o109kUoc0N-43" target="00jODEar77DZwwpebo26-35" edge="1">
          <mxGeometry width="50" height="50" relative="1" as="geometry">
            <mxPoint x="1210.62" y="-650" as="sourcePoint" />
            <mxPoint x="1256.87" y="-690" as="targetPoint" />
          </mxGeometry>
        </mxCell>
        <mxCell id="HrWQXQLJa8o109kUoc0N-40" value="" style="endArrow=none;html=1;rounded=0;entryX=0.5;entryY=0;entryDx=0;entryDy=0;exitX=0.75;exitY=0;exitDx=0;exitDy=0;" parent="WIyWlLk6GJQsqaUBKTNV-1" source="HrWQXQLJa8o109kUoc0N-43" target="00jODEar77DZwwpebo26-36" edge="1">
          <mxGeometry width="50" height="50" relative="1" as="geometry">
            <mxPoint x="1260.62" y="-650" as="sourcePoint" />
            <mxPoint x="1290.6200000000001" y="-680" as="targetPoint" />
          </mxGeometry>
        </mxCell>
        <mxCell id="HrWQXQLJa8o109kUoc0N-41" value="&lt;span style=&quot;font-size: 10px;&quot;&gt;Is_Used&lt;/span&gt;" style="rhombus;whiteSpace=wrap;html=1;" parent="WIyWlLk6GJQsqaUBKTNV-1" vertex="1">
          <mxGeometry x="925" y="-222.5" width="80" height="72.5" as="geometry" />
        </mxCell>
        <mxCell id="HrWQXQLJa8o109kUoc0N-43" value="&lt;font style=&quot;font-size: 18px;&quot;&gt;Card&lt;/font&gt;" style="rounded=0;whiteSpace=wrap;html=1;" parent="WIyWlLk6GJQsqaUBKTNV-1" vertex="1">
          <mxGeometry x="1139.99" y="-620" width="120" height="60" as="geometry" />
        </mxCell>
        <mxCell id="HrWQXQLJa8o109kUoc0N-44" value="" style="endArrow=none;html=1;rounded=0;entryX=0.5;entryY=0;entryDx=0;entryDy=0;exitX=0.327;exitY=0.938;exitDx=0;exitDy=0;exitPerimeter=0;" parent="WIyWlLk6GJQsqaUBKTNV-1" source="DI6oxZLG0wE0e1uGwIm_-15" target="HrWQXQLJa8o109kUoc0N-41" edge="1">
          <mxGeometry width="50" height="50" relative="1" as="geometry">
            <mxPoint x="960" y="-290" as="sourcePoint" />
            <mxPoint x="935" y="-270" as="targetPoint" />
          </mxGeometry>
        </mxCell>
        <mxCell id="HrWQXQLJa8o109kUoc0N-45" value="" style="endArrow=none;html=1;rounded=0;exitX=0.625;exitY=0.087;exitDx=0;exitDy=0;exitPerimeter=0;entryX=0.45;entryY=1.011;entryDx=0;entryDy=0;entryPerimeter=0;" parent="WIyWlLk6GJQsqaUBKTNV-1" source="HrWQXQLJa8o109kUoc0N-41" target="DI6oxZLG0wE0e1uGwIm_-15" edge="1">
          <mxGeometry width="50" height="50" relative="1" as="geometry">
            <mxPoint x="969" y="-230" as="sourcePoint" />
            <mxPoint x="970" y="-290" as="targetPoint" />
          </mxGeometry>
        </mxCell>
        <mxCell id="HrWQXQLJa8o109kUoc0N-46" value="" style="endArrow=none;html=1;rounded=0;entryX=0.385;entryY=0.93;entryDx=0;entryDy=0;entryPerimeter=0;" parent="WIyWlLk6GJQsqaUBKTNV-1" target="HrWQXQLJa8o109kUoc0N-41" edge="1">
          <mxGeometry width="50" height="50" relative="1" as="geometry">
            <mxPoint x="939.63" y="-70" as="sourcePoint" />
            <mxPoint x="939.63" y="-154" as="targetPoint" />
          </mxGeometry>
        </mxCell>
        <mxCell id="HrWQXQLJa8o109kUoc0N-48" value="1" style="text;html=1;align=center;verticalAlign=middle;whiteSpace=wrap;rounded=0;" parent="WIyWlLk6GJQsqaUBKTNV-1" vertex="1">
          <mxGeometry x="939.38" y="-158.12" width="60" height="30" as="geometry" />
        </mxCell>
        <mxCell id="HrWQXQLJa8o109kUoc0N-49" value="N" style="text;html=1;align=center;verticalAlign=middle;whiteSpace=wrap;rounded=0;" parent="WIyWlLk6GJQsqaUBKTNV-1" vertex="1">
          <mxGeometry x="920" y="-250" width="60" height="30" as="geometry" />
        </mxCell>
        <mxCell id="HrWQXQLJa8o109kUoc0N-51" value="" style="endArrow=none;html=1;rounded=0;entryX=0;entryY=0;entryDx=0;entryDy=0;" parent="WIyWlLk6GJQsqaUBKTNV-1" target="00jODEar77DZwwpebo26-25" edge="1">
          <mxGeometry width="50" height="50" relative="1" as="geometry">
            <mxPoint x="707" y="-240" as="sourcePoint" />
            <mxPoint x="770.234324393823" y="-201.8276821855618" as="targetPoint" />
          </mxGeometry>
        </mxCell>
        <mxCell id="HrWQXQLJa8o109kUoc0N-52" value="" style="endArrow=none;html=1;rounded=0;entryX=0;entryY=0.5;entryDx=0;entryDy=0;" parent="WIyWlLk6GJQsqaUBKTNV-1" target="00jODEar77DZwwpebo26-25" edge="1">
          <mxGeometry width="50" height="50" relative="1" as="geometry">
            <mxPoint x="707" y="-178" as="sourcePoint" />
            <mxPoint x="753.75" y="-180" as="targetPoint" />
          </mxGeometry>
        </mxCell>
        <mxCell id="HrWQXQLJa8o109kUoc0N-53" value="" style="endArrow=none;html=1;rounded=0;entryX=0.065;entryY=0.778;entryDx=0;entryDy=0;exitX=1;exitY=0.25;exitDx=0;exitDy=0;exitPerimeter=0;entryPerimeter=0;" parent="WIyWlLk6GJQsqaUBKTNV-1" source="HrWQXQLJa8o109kUoc0N-6" target="00jODEar77DZwwpebo26-25" edge="1">
          <mxGeometry width="50" height="50" relative="1" as="geometry">
            <mxPoint x="717" y="-168" as="sourcePoint" />
            <mxPoint x="762.4649999999999" y="-164.51999999999998" as="targetPoint" />
          </mxGeometry>
        </mxCell>
        <mxCell id="HrWQXQLJa8o109kUoc0N-54" value="" style="endArrow=none;html=1;rounded=0;exitX=0.75;exitY=1;exitDx=0;exitDy=0;" parent="WIyWlLk6GJQsqaUBKTNV-1" source="00jODEar77DZwwpebo26-23" target="00jODEar77DZwwpebo26-71" edge="1">
          <mxGeometry width="50" height="50" relative="1" as="geometry">
            <mxPoint x="1250" y="10" as="sourcePoint" />
            <mxPoint x="1300" y="-40" as="targetPoint" />
          </mxGeometry>
        </mxCell>
        <mxCell id="HrWQXQLJa8o109kUoc0N-55" value="" style="endArrow=none;html=1;rounded=0;exitX=1;exitY=0;exitDx=0;exitDy=0;entryX=0;entryY=0.25;entryDx=0;entryDy=0;" parent="WIyWlLk6GJQsqaUBKTNV-1" source="00jODEar77DZwwpebo26-71" target="00jODEar77DZwwpebo26-55" edge="1">
          <mxGeometry width="50" height="50" relative="1" as="geometry">
            <mxPoint x="1250" y="60" as="sourcePoint" />
            <mxPoint x="1300" y="10" as="targetPoint" />
          </mxGeometry>
        </mxCell>
        <mxCell id="HrWQXQLJa8o109kUoc0N-56" value="" style="endArrow=none;html=1;rounded=0;exitX=0.845;exitY=0.333;exitDx=0;exitDy=0;exitPerimeter=0;entryX=0;entryY=0.5;entryDx=0;entryDy=0;" parent="WIyWlLk6GJQsqaUBKTNV-1" source="00jODEar77DZwwpebo26-71" target="00jODEar77DZwwpebo26-55" edge="1">
          <mxGeometry width="50" height="50" relative="1" as="geometry">
            <mxPoint x="1250" y="60" as="sourcePoint" />
            <mxPoint x="1300" y="10" as="targetPoint" />
          </mxGeometry>
        </mxCell>
        <mxCell id="HrWQXQLJa8o109kUoc0N-57" value="1" style="text;html=1;align=center;verticalAlign=middle;whiteSpace=wrap;rounded=0;" parent="WIyWlLk6GJQsqaUBKTNV-1" vertex="1">
          <mxGeometry x="1211" y="50" width="60" height="30" as="geometry" />
        </mxCell>
        <mxCell id="HrWQXQLJa8o109kUoc0N-58" value="N" style="text;html=1;align=center;verticalAlign=middle;whiteSpace=wrap;rounded=0;" parent="WIyWlLk6GJQsqaUBKTNV-1" vertex="1">
          <mxGeometry x="1310" y="50" width="60" height="30" as="geometry" />
        </mxCell>
        <mxCell id="HrWQXQLJa8o109kUoc0N-59" value="&lt;font style=&quot;font-size: 17px;&quot;&gt;Pays_For&lt;/font&gt;" style="rhombus;whiteSpace=wrap;html=1;" parent="WIyWlLk6GJQsqaUBKTNV-1" vertex="1">
          <mxGeometry x="1505" y="-237.5" width="100" height="90" as="geometry" />
        </mxCell>
        <mxCell id="HrWQXQLJa8o109kUoc0N-61" value="" style="endArrow=none;html=1;rounded=0;entryX=0;entryY=0;entryDx=0;entryDy=0;" parent="WIyWlLk6GJQsqaUBKTNV-1" target="HrWQXQLJa8o109kUoc0N-59" edge="1">
          <mxGeometry width="50" height="50" relative="1" as="geometry">
            <mxPoint x="1050" y="-342" as="sourcePoint" />
            <mxPoint x="1294" y="-140" as="targetPoint" />
          </mxGeometry>
        </mxCell>
        <mxCell id="HrWQXQLJa8o109kUoc0N-62" value="" style="endArrow=none;html=1;rounded=0;exitX=0.5;exitY=0;exitDx=0;exitDy=0;entryX=1;entryY=1;entryDx=0;entryDy=0;" parent="WIyWlLk6GJQsqaUBKTNV-1" source="00jODEar77DZwwpebo26-55" target="HrWQXQLJa8o109kUoc0N-59" edge="1">
          <mxGeometry width="50" height="50" relative="1" as="geometry">
            <mxPoint x="1310" y="-80" as="sourcePoint" />
            <mxPoint x="1360" y="-130" as="targetPoint" />
          </mxGeometry>
        </mxCell>
        <mxCell id="HrWQXQLJa8o109kUoc0N-63" value="" style="endArrow=none;html=1;rounded=0;exitX=0.333;exitY=0.042;exitDx=0;exitDy=0;exitPerimeter=0;entryX=0.643;entryY=0.876;entryDx=0;entryDy=0;entryPerimeter=0;" parent="WIyWlLk6GJQsqaUBKTNV-1" source="00jODEar77DZwwpebo26-55" target="HrWQXQLJa8o109kUoc0N-59" edge="1">
          <mxGeometry width="50" height="50" relative="1" as="geometry">
            <mxPoint x="1310" y="-80" as="sourcePoint" />
            <mxPoint x="1360" y="-130" as="targetPoint" />
          </mxGeometry>
        </mxCell>
        <mxCell id="HrWQXQLJa8o109kUoc0N-64" value="1" style="text;html=1;align=center;verticalAlign=middle;whiteSpace=wrap;rounded=0;" parent="WIyWlLk6GJQsqaUBKTNV-1" vertex="1">
          <mxGeometry x="1490" y="-250" width="60" height="30" as="geometry" />
        </mxCell>
        <mxCell id="HrWQXQLJa8o109kUoc0N-65" value="N" style="text;html=1;align=center;verticalAlign=middle;whiteSpace=wrap;rounded=0;" parent="WIyWlLk6GJQsqaUBKTNV-1" vertex="1">
          <mxGeometry x="1570" y="-180" width="60" height="30" as="geometry" />
        </mxCell>
        <mxCell id="HrWQXQLJa8o109kUoc0N-66" value="Day" style="ellipse;whiteSpace=wrap;html=1;" parent="WIyWlLk6GJQsqaUBKTNV-1" vertex="1">
          <mxGeometry x="1920" y="110" width="70" height="40" as="geometry" />
        </mxCell>
        <mxCell id="HrWQXQLJa8o109kUoc0N-67" value="Month" style="ellipse;whiteSpace=wrap;html=1;" parent="WIyWlLk6GJQsqaUBKTNV-1" vertex="1">
          <mxGeometry x="1960" y="150" width="70" height="40" as="geometry" />
        </mxCell>
        <mxCell id="HrWQXQLJa8o109kUoc0N-68" value="Year" style="ellipse;whiteSpace=wrap;html=1;" parent="WIyWlLk6GJQsqaUBKTNV-1" vertex="1">
          <mxGeometry x="1920" y="187.5" width="70" height="40" as="geometry" />
        </mxCell>
        <mxCell id="HrWQXQLJa8o109kUoc0N-69" value="" style="endArrow=none;html=1;rounded=0;entryX=0;entryY=1;entryDx=0;entryDy=0;" parent="WIyWlLk6GJQsqaUBKTNV-1" target="00jODEar77DZwwpebo26-60" edge="1">
          <mxGeometry width="50" height="50" relative="1" as="geometry">
            <mxPoint x="1740" y="162.5" as="sourcePoint" />
            <mxPoint x="1790" y="112.5" as="targetPoint" />
          </mxGeometry>
        </mxCell>
        <mxCell id="HrWQXQLJa8o109kUoc0N-70" value="" style="endArrow=none;html=1;rounded=0;entryX=0;entryY=0.5;entryDx=0;entryDy=0;exitX=1;exitY=0.5;exitDx=0;exitDy=0;" parent="WIyWlLk6GJQsqaUBKTNV-1" source="00jODEar77DZwwpebo26-55" target="00jODEar77DZwwpebo26-59" edge="1">
          <mxGeometry width="50" height="50" relative="1" as="geometry">
            <mxPoint x="1750" y="172.5" as="sourcePoint" />
            <mxPoint x="1790.0000000000018" y="177.5" as="targetPoint" />
          </mxGeometry>
        </mxCell>
        <mxCell id="HrWQXQLJa8o109kUoc0N-71" value="" style="endArrow=none;html=1;rounded=0;entryX=0;entryY=0;entryDx=0;entryDy=0;exitX=1;exitY=0.75;exitDx=0;exitDy=0;" parent="WIyWlLk6GJQsqaUBKTNV-1" source="00jODEar77DZwwpebo26-55" target="00jODEar77DZwwpebo26-56" edge="1">
          <mxGeometry width="50" height="50" relative="1" as="geometry">
            <mxPoint x="1750" y="188" as="sourcePoint" />
            <mxPoint x="1800" y="188" as="targetPoint" />
          </mxGeometry>
        </mxCell>
        <mxCell id="HrWQXQLJa8o109kUoc0N-72" value="" style="endArrow=none;html=1;rounded=0;entryX=0;entryY=0.5;entryDx=0;entryDy=0;" parent="WIyWlLk6GJQsqaUBKTNV-1" source="00jODEar77DZwwpebo26-59" target="HrWQXQLJa8o109kUoc0N-66" edge="1">
          <mxGeometry width="50" height="50" relative="1" as="geometry">
            <mxPoint x="1877.5" y="159.23" as="sourcePoint" />
            <mxPoint x="1927.5" y="159.23" as="targetPoint" />
          </mxGeometry>
        </mxCell>
        <mxCell id="HrWQXQLJa8o109kUoc0N-73" value="" style="endArrow=none;html=1;rounded=0;entryX=0;entryY=0.5;entryDx=0;entryDy=0;exitX=0.986;exitY=0.412;exitDx=0;exitDy=0;exitPerimeter=0;" parent="WIyWlLk6GJQsqaUBKTNV-1" source="00jODEar77DZwwpebo26-59" target="HrWQXQLJa8o109kUoc0N-67" edge="1">
          <mxGeometry width="50" height="50" relative="1" as="geometry">
            <mxPoint x="1887.5" y="169.23" as="sourcePoint" />
            <mxPoint x="1930" y="140" as="targetPoint" />
          </mxGeometry>
        </mxCell>
        <mxCell id="HrWQXQLJa8o109kUoc0N-74" value="" style="endArrow=none;html=1;rounded=0;entryX=0;entryY=0.5;entryDx=0;entryDy=0;exitX=0.937;exitY=0.703;exitDx=0;exitDy=0;exitPerimeter=0;" parent="WIyWlLk6GJQsqaUBKTNV-1" source="00jODEar77DZwwpebo26-59" target="HrWQXQLJa8o109kUoc0N-68" edge="1">
          <mxGeometry width="50" height="50" relative="1" as="geometry">
            <mxPoint x="1887.5" y="190" as="sourcePoint" />
            <mxPoint x="1960" y="190.77" as="targetPoint" />
          </mxGeometry>
        </mxCell>
        <mxCell id="HrWQXQLJa8o109kUoc0N-75" value="" style="endArrow=none;html=1;rounded=0;" parent="WIyWlLk6GJQsqaUBKTNV-1" source="00jODEar77DZwwpebo26-72" edge="1">
          <mxGeometry width="50" height="50" relative="1" as="geometry">
            <mxPoint x="1620" y="257.5" as="sourcePoint" />
            <mxPoint x="1670" y="207.5" as="targetPoint" />
          </mxGeometry>
        </mxCell>
        <mxCell id="HrWQXQLJa8o109kUoc0N-76" value="" style="endArrow=none;html=1;rounded=0;exitX=1;exitY=0;exitDx=0;exitDy=0;" parent="WIyWlLk6GJQsqaUBKTNV-1" source="00jODEar77DZwwpebo26-72" edge="1">
          <mxGeometry width="50" height="50" relative="1" as="geometry">
            <mxPoint x="1630" y="257.5" as="sourcePoint" />
            <mxPoint x="1680" y="207.5" as="targetPoint" />
          </mxGeometry>
        </mxCell>
        <mxCell id="HrWQXQLJa8o109kUoc0N-77" value="" style="endArrow=none;html=1;rounded=0;entryX=0.5;entryY=1;entryDx=0;entryDy=0;exitX=0.5;exitY=0;exitDx=0;exitDy=0;" parent="WIyWlLk6GJQsqaUBKTNV-1" source="00jODEar77DZwwpebo26-42" target="00jODEar77DZwwpebo26-72" edge="1">
          <mxGeometry width="50" height="50" relative="1" as="geometry">
            <mxPoint x="1740" y="760" as="sourcePoint" />
            <mxPoint x="1470" y="330" as="targetPoint" />
          </mxGeometry>
        </mxCell>
        <mxCell id="HrWQXQLJa8o109kUoc0N-78" value="N" style="text;html=1;align=center;verticalAlign=middle;whiteSpace=wrap;rounded=0;" parent="WIyWlLk6GJQsqaUBKTNV-1" vertex="1">
          <mxGeometry x="1540" y="347.5" width="60" height="30" as="geometry" />
        </mxCell>
        <mxCell id="HrWQXQLJa8o109kUoc0N-79" value="1" style="text;html=1;align=center;verticalAlign=middle;whiteSpace=wrap;rounded=0;" parent="WIyWlLk6GJQsqaUBKTNV-1" vertex="1">
          <mxGeometry x="1510" y="460" width="60" height="30" as="geometry" />
        </mxCell>
        <mxCell id="HrWQXQLJa8o109kUoc0N-80" value="" style="endArrow=none;html=1;rounded=0;exitX=0.802;exitY=0.023;exitDx=0;exitDy=0;exitPerimeter=0;entryX=0.323;entryY=0.975;entryDx=0;entryDy=0;entryPerimeter=0;" parent="WIyWlLk6GJQsqaUBKTNV-1" source="00jODEar77DZwwpebo26-42" target="00jODEar77DZwwpebo26-53" edge="1">
          <mxGeometry width="50" height="50" relative="1" as="geometry">
            <mxPoint x="1876.25" y="826" as="sourcePoint" />
            <mxPoint x="1926.25" y="776" as="targetPoint" />
          </mxGeometry>
        </mxCell>
        <mxCell id="HrWQXQLJa8o109kUoc0N-81" value="" style="endArrow=none;html=1;rounded=0;exitX=1;exitY=0.25;exitDx=0;exitDy=0;entryX=0;entryY=0.5;entryDx=0;entryDy=0;" parent="WIyWlLk6GJQsqaUBKTNV-1" source="00jODEar77DZwwpebo26-42" target="00jODEar77DZwwpebo26-54" edge="1">
          <mxGeometry width="50" height="50" relative="1" as="geometry">
            <mxPoint x="1782.25" y="777" as="sourcePoint" />
            <mxPoint x="1849.25" y="719" as="targetPoint" />
          </mxGeometry>
        </mxCell>
        <mxCell id="HrWQXQLJa8o109kUoc0N-82" value="" style="endArrow=none;html=1;rounded=0;exitX=1;exitY=0.5;exitDx=0;exitDy=0;entryX=0;entryY=0.5;entryDx=0;entryDy=0;" parent="WIyWlLk6GJQsqaUBKTNV-1" source="00jODEar77DZwwpebo26-42" target="00jODEar77DZwwpebo26-51" edge="1">
          <mxGeometry width="50" height="50" relative="1" as="geometry">
            <mxPoint x="1806.25" y="791" as="sourcePoint" />
            <mxPoint x="1996.25" y="796" as="targetPoint" />
          </mxGeometry>
        </mxCell>
        <mxCell id="HrWQXQLJa8o109kUoc0N-83" value="" style="endArrow=none;html=1;rounded=0;exitX=1;exitY=0.75;exitDx=0;exitDy=0;entryX=0;entryY=0.5;entryDx=0;entryDy=0;" parent="WIyWlLk6GJQsqaUBKTNV-1" source="00jODEar77DZwwpebo26-42" edge="1">
          <mxGeometry width="50" height="50" relative="1" as="geometry">
            <mxPoint x="1806.25" y="806" as="sourcePoint" />
            <mxPoint x="1901.25" y="846" as="targetPoint" />
          </mxGeometry>
        </mxCell>
        <mxCell id="HrWQXQLJa8o109kUoc0N-84" value="" style="endArrow=none;html=1;rounded=0;exitX=1;exitY=0;exitDx=0;exitDy=0;entryX=0;entryY=0.5;entryDx=0;entryDy=0;" parent="WIyWlLk6GJQsqaUBKTNV-1" source="00jODEar77DZwwpebo26-51" target="HrWQXQLJa8o109kUoc0N-10" edge="1">
          <mxGeometry width="50" height="50" relative="1" as="geometry">
            <mxPoint x="2085.7327555045836" y="774.7068983458462" as="sourcePoint" />
            <mxPoint x="2176.25" y="776" as="targetPoint" />
          </mxGeometry>
        </mxCell>
        <mxCell id="HrWQXQLJa8o109kUoc0N-85" value="" style="endArrow=none;html=1;rounded=0;exitX=1;exitY=0.5;exitDx=0;exitDy=0;entryX=0;entryY=0.5;entryDx=0;entryDy=0;" parent="WIyWlLk6GJQsqaUBKTNV-1" source="00jODEar77DZwwpebo26-51" target="HrWQXQLJa8o109kUoc0N-11" edge="1">
          <mxGeometry width="50" height="50" relative="1" as="geometry">
            <mxPoint x="2096.25" y="785" as="sourcePoint" />
            <mxPoint x="2149.25" y="751" as="targetPoint" />
          </mxGeometry>
        </mxCell>
        <mxCell id="HrWQXQLJa8o109kUoc0N-86" value="" style="endArrow=none;html=1;rounded=0;exitX=1;exitY=1;exitDx=0;exitDy=0;entryX=0;entryY=0.5;entryDx=0;entryDy=0;" parent="WIyWlLk6GJQsqaUBKTNV-1" source="00jODEar77DZwwpebo26-51" target="HrWQXQLJa8o109kUoc0N-12" edge="1">
          <mxGeometry width="50" height="50" relative="1" as="geometry">
            <mxPoint x="2085.7327555045836" y="817.2931016541543" as="sourcePoint" />
            <mxPoint x="2174.25" y="804" as="targetPoint" />
          </mxGeometry>
        </mxCell>
        <mxCell id="HrWQXQLJa8o109kUoc0N-101" value="" style="endArrow=none;html=1;rounded=0;exitX=0.9;exitY=0.667;exitDx=0;exitDy=0;exitPerimeter=0;" parent="WIyWlLk6GJQsqaUBKTNV-1" source="00jODEar77DZwwpebo26-64" edge="1">
          <mxGeometry width="50" height="50" relative="1" as="geometry">
            <mxPoint x="1270" y="680" as="sourcePoint" />
            <mxPoint x="1390" y="670" as="targetPoint" />
          </mxGeometry>
        </mxCell>
        <mxCell id="HrWQXQLJa8o109kUoc0N-102" value="" style="endArrow=none;html=1;rounded=0;exitX=0.9;exitY=0.667;exitDx=0;exitDy=0;entryX=0;entryY=0.5;entryDx=0;entryDy=0;exitPerimeter=0;" parent="WIyWlLk6GJQsqaUBKTNV-1" target="00jODEar77DZwwpebo26-48" edge="1">
          <mxGeometry width="50" height="50" relative="1" as="geometry">
            <mxPoint x="970" y="769" as="sourcePoint" />
            <mxPoint x="1350" y="860" as="targetPoint" />
          </mxGeometry>
        </mxCell>
        <mxCell id="HrWQXQLJa8o109kUoc0N-103" value="" style="endArrow=none;html=1;rounded=0;entryX=0;entryY=0;entryDx=0;entryDy=0;" parent="WIyWlLk6GJQsqaUBKTNV-1" target="00jODEar77DZwwpebo26-64" edge="1">
          <mxGeometry width="50" height="50" relative="1" as="geometry">
            <mxPoint x="830" y="460" as="sourcePoint" />
            <mxPoint x="1100" y="590" as="targetPoint" />
          </mxGeometry>
        </mxCell>
        <mxCell id="HrWQXQLJa8o109kUoc0N-104" value="" style="endArrow=none;html=1;rounded=0;exitX=0.5;exitY=1;exitDx=0;exitDy=0;entryX=0;entryY=0;entryDx=0;entryDy=0;" parent="WIyWlLk6GJQsqaUBKTNV-1" source="00jODEar77DZwwpebo26-37" target="00jODEar77DZwwpebo26-65" edge="1">
          <mxGeometry width="50" height="50" relative="1" as="geometry">
            <mxPoint x="1050" y="640" as="sourcePoint" />
            <mxPoint x="1100" y="590" as="targetPoint" />
          </mxGeometry>
        </mxCell>
        <mxCell id="HrWQXQLJa8o109kUoc0N-105" value="" style="endArrow=none;html=1;rounded=0;exitX=0.615;exitY=1.021;exitDx=0;exitDy=0;exitPerimeter=0;entryX=0.32;entryY=0.167;entryDx=0;entryDy=0;entryPerimeter=0;" parent="WIyWlLk6GJQsqaUBKTNV-1" source="00jODEar77DZwwpebo26-37" target="00jODEar77DZwwpebo26-65" edge="1">
          <mxGeometry width="50" height="50" relative="1" as="geometry">
            <mxPoint x="1050" y="640" as="sourcePoint" />
            <mxPoint x="920" y="710" as="targetPoint" />
          </mxGeometry>
        </mxCell>
        <mxCell id="HrWQXQLJa8o109kUoc0N-106" value="" style="endArrow=none;html=1;rounded=0;" parent="WIyWlLk6GJQsqaUBKTNV-1" edge="1">
          <mxGeometry width="50" height="50" relative="1" as="geometry">
            <mxPoint x="830" y="470" as="sourcePoint" />
            <mxPoint x="1030" y="550" as="targetPoint" />
          </mxGeometry>
        </mxCell>
        <mxCell id="HrWQXQLJa8o109kUoc0N-107" value="1" style="text;html=1;align=center;verticalAlign=middle;whiteSpace=wrap;rounded=0;" parent="WIyWlLk6GJQsqaUBKTNV-1" vertex="1">
          <mxGeometry x="970" y="745" width="60" height="30" as="geometry" />
        </mxCell>
        <mxCell id="HrWQXQLJa8o109kUoc0N-109" value="1" style="text;html=1;align=center;verticalAlign=middle;whiteSpace=wrap;rounded=0;" parent="WIyWlLk6GJQsqaUBKTNV-1" vertex="1">
          <mxGeometry x="869.38" y="705" width="60" height="30" as="geometry" />
        </mxCell>
        <mxCell id="HrWQXQLJa8o109kUoc0N-110" value="N" style="text;html=1;align=center;verticalAlign=middle;whiteSpace=wrap;rounded=0;" parent="WIyWlLk6GJQsqaUBKTNV-1" vertex="1">
          <mxGeometry x="1010" y="510" width="60" height="30" as="geometry" />
        </mxCell>
        <mxCell id="HrWQXQLJa8o109kUoc0N-111" value="1" style="text;html=1;align=center;verticalAlign=middle;whiteSpace=wrap;rounded=0;" parent="WIyWlLk6GJQsqaUBKTNV-1" vertex="1">
          <mxGeometry x="1120" y="554" width="60" height="30" as="geometry" />
        </mxCell>
        <mxCell id="HrWQXQLJa8o109kUoc0N-112" value="" style="endArrow=none;html=1;rounded=0;entryX=0.5;entryY=1;entryDx=0;entryDy=0;exitX=0.414;exitY=-0.014;exitDx=0;exitDy=0;exitPerimeter=0;" parent="WIyWlLk6GJQsqaUBKTNV-1" source="00jODEar77DZwwpebo26-37" target="00jODEar77DZwwpebo26-39" edge="1">
          <mxGeometry width="50" height="50" relative="1" as="geometry">
            <mxPoint x="761" y="426" as="sourcePoint" />
            <mxPoint x="800" y="300" as="targetPoint" />
          </mxGeometry>
        </mxCell>
        <mxCell id="HrWQXQLJa8o109kUoc0N-114" value="" style="endArrow=none;html=1;rounded=0;entryX=0.5;entryY=1;entryDx=0;entryDy=0;exitX=0.75;exitY=0;exitDx=0;exitDy=0;" parent="WIyWlLk6GJQsqaUBKTNV-1" source="00jODEar77DZwwpebo26-37" target="00jODEar77DZwwpebo26-40" edge="1">
          <mxGeometry width="50" height="50" relative="1" as="geometry">
            <mxPoint x="767" y="439" as="sourcePoint" />
            <mxPoint x="815" y="358" as="targetPoint" />
          </mxGeometry>
        </mxCell>
        <mxCell id="HrWQXQLJa8o109kUoc0N-115" value="" style="endArrow=none;html=1;rounded=0;exitX=1;exitY=1;exitDx=0;exitDy=0;entryX=0.151;entryY=0.345;entryDx=0;entryDy=0;entryPerimeter=0;" parent="WIyWlLk6GJQsqaUBKTNV-1" source="00jODEar77DZwwpebo26-1" target="00jODEar77DZwwpebo26-63" edge="1">
          <mxGeometry width="50" height="50" relative="1" as="geometry">
            <mxPoint x="510" y="340" as="sourcePoint" />
            <mxPoint x="560" y="290" as="targetPoint" />
          </mxGeometry>
        </mxCell>
        <mxCell id="HrWQXQLJa8o109kUoc0N-116" value="" style="endArrow=none;html=1;rounded=0;exitX=1.017;exitY=0.88;exitDx=0;exitDy=0;exitPerimeter=0;" parent="WIyWlLk6GJQsqaUBKTNV-1" source="00jODEar77DZwwpebo26-1" target="00jODEar77DZwwpebo26-63" edge="1">
          <mxGeometry width="50" height="50" relative="1" as="geometry">
            <mxPoint x="510" y="340" as="sourcePoint" />
            <mxPoint x="560" y="290" as="targetPoint" />
          </mxGeometry>
        </mxCell>
        <mxCell id="HrWQXQLJa8o109kUoc0N-117" value="" style="endArrow=none;html=1;rounded=0;exitX=1;exitY=1;exitDx=0;exitDy=0;entryX=0;entryY=0.5;entryDx=0;entryDy=0;" parent="WIyWlLk6GJQsqaUBKTNV-1" source="00jODEar77DZwwpebo26-63" target="00jODEar77DZwwpebo26-37" edge="1">
          <mxGeometry width="50" height="50" relative="1" as="geometry">
            <mxPoint x="510" y="340" as="sourcePoint" />
            <mxPoint x="560" y="290" as="targetPoint" />
          </mxGeometry>
        </mxCell>
        <mxCell id="HrWQXQLJa8o109kUoc0N-118" value="N" style="text;html=1;align=center;verticalAlign=middle;whiteSpace=wrap;rounded=0;" parent="WIyWlLk6GJQsqaUBKTNV-1" vertex="1">
          <mxGeometry x="570" y="347.5" width="60" height="30" as="geometry" />
        </mxCell>
        <mxCell id="HrWQXQLJa8o109kUoc0N-119" value="1" style="text;html=1;align=center;verticalAlign=middle;whiteSpace=wrap;rounded=0;" parent="WIyWlLk6GJQsqaUBKTNV-1" vertex="1">
          <mxGeometry x="490" y="287.5" width="60" height="30" as="geometry" />
        </mxCell>
        <mxCell id="HrWQXQLJa8o109kUoc0N-120" value="" style="endArrow=none;html=1;rounded=0;exitX=0.5;exitY=0;exitDx=0;exitDy=0;" parent="WIyWlLk6GJQsqaUBKTNV-1" source="00jODEar77DZwwpebo26-1" target="HrWQXQLJa8o109kUoc0N-121" edge="1">
          <mxGeometry width="50" height="50" relative="1" as="geometry">
            <mxPoint x="360" y="90" as="sourcePoint" />
            <mxPoint x="290" y="-10" as="targetPoint" />
          </mxGeometry>
        </mxCell>
        <mxCell id="HrWQXQLJa8o109kUoc0N-121" value="Publishes" style="rhombus;whiteSpace=wrap;html=1;" parent="WIyWlLk6GJQsqaUBKTNV-1" vertex="1">
          <mxGeometry x="250" y="-40" width="80" height="80" as="geometry" />
        </mxCell>
        <mxCell id="HrWQXQLJa8o109kUoc0N-123" value="&lt;font style=&quot;font-size: 19px;&quot;&gt;Publisher&lt;/font&gt;" style="rounded=0;whiteSpace=wrap;html=1;" parent="WIyWlLk6GJQsqaUBKTNV-1" vertex="1">
          <mxGeometry x="230" y="-207.5" width="120" height="60" as="geometry" />
        </mxCell>
        <mxCell id="HrWQXQLJa8o109kUoc0N-125" value="Email" style="ellipse;whiteSpace=wrap;html=1;" parent="WIyWlLk6GJQsqaUBKTNV-1" vertex="1">
          <mxGeometry x="200" y="-340" width="70" height="40" as="geometry" />
        </mxCell>
        <mxCell id="HrWQXQLJa8o109kUoc0N-126" value="Address" style="ellipse;whiteSpace=wrap;html=1;" parent="WIyWlLk6GJQsqaUBKTNV-1" vertex="1">
          <mxGeometry x="280" y="-340" width="70" height="40" as="geometry" />
        </mxCell>
        <mxCell id="HrWQXQLJa8o109kUoc0N-127" value="Name" style="ellipse;whiteSpace=wrap;html=1;" parent="WIyWlLk6GJQsqaUBKTNV-1" vertex="1">
          <mxGeometry x="130" y="-310" width="70" height="40" as="geometry" />
        </mxCell>
        <mxCell id="HrWQXQLJa8o109kUoc0N-128" value="&lt;u&gt;Publisher_ID&lt;/u&gt;" style="ellipse;whiteSpace=wrap;html=1;" parent="WIyWlLk6GJQsqaUBKTNV-1" vertex="1">
          <mxGeometry x="120" y="-255" width="80" height="45" as="geometry" />
        </mxCell>
        <mxCell id="HrWQXQLJa8o109kUoc0N-129" value="" style="endArrow=none;html=1;rounded=0;exitX=0.559;exitY=0.059;exitDx=0;exitDy=0;exitPerimeter=0;entryX=0.545;entryY=0.989;entryDx=0;entryDy=0;entryPerimeter=0;" parent="WIyWlLk6GJQsqaUBKTNV-1" source="HrWQXQLJa8o109kUoc0N-121" target="HrWQXQLJa8o109kUoc0N-123" edge="1">
          <mxGeometry width="50" height="50" relative="1" as="geometry">
            <mxPoint x="370" y="-60" as="sourcePoint" />
            <mxPoint x="420" y="-110" as="targetPoint" />
          </mxGeometry>
        </mxCell>
        <mxCell id="HrWQXQLJa8o109kUoc0N-130" value="" style="endArrow=none;html=1;rounded=0;exitX=0.559;exitY=0.059;exitDx=0;exitDy=0;exitPerimeter=0;entryX=0.37;entryY=0.848;entryDx=0;entryDy=0;entryPerimeter=0;" parent="WIyWlLk6GJQsqaUBKTNV-1" target="HrWQXQLJa8o109kUoc0N-121" edge="1">
          <mxGeometry width="50" height="50" relative="1" as="geometry">
            <mxPoint x="279.05" y="163" as="sourcePoint" />
            <mxPoint x="279.05" y="50" as="targetPoint" />
          </mxGeometry>
        </mxCell>
        <mxCell id="HrWQXQLJa8o109kUoc0N-131" value="" style="endArrow=none;html=1;rounded=0;entryX=0.545;entryY=0.989;entryDx=0;entryDy=0;entryPerimeter=0;" parent="WIyWlLk6GJQsqaUBKTNV-1" edge="1">
          <mxGeometry width="50" height="50" relative="1" as="geometry">
            <mxPoint x="310" y="-210" as="sourcePoint" />
            <mxPoint x="314.52" y="-303" as="targetPoint" />
          </mxGeometry>
        </mxCell>
        <mxCell id="HrWQXQLJa8o109kUoc0N-132" value="" style="endArrow=none;html=1;rounded=0;entryX=0.5;entryY=1;entryDx=0;entryDy=0;" parent="WIyWlLk6GJQsqaUBKTNV-1" target="LCO-Q6_ydGcM2-XTaxpA-0" edge="1">
          <mxGeometry width="50" height="50" relative="1" as="geometry">
            <mxPoint x="330" y="-210" as="sourcePoint" />
            <mxPoint x="379.98772044791906" y="-276.01008092849725" as="targetPoint" />
          </mxGeometry>
        </mxCell>
        <mxCell id="HrWQXQLJa8o109kUoc0N-133" value="" style="endArrow=none;html=1;rounded=0;entryX=0.5;entryY=1;entryDx=0;entryDy=0;exitX=0.25;exitY=0;exitDx=0;exitDy=0;" parent="WIyWlLk6GJQsqaUBKTNV-1" source="HrWQXQLJa8o109kUoc0N-123" target="HrWQXQLJa8o109kUoc0N-125" edge="1">
          <mxGeometry width="50" height="50" relative="1" as="geometry">
            <mxPoint x="340" y="-200" as="sourcePoint" />
            <mxPoint x="371" y="-266" as="targetPoint" />
          </mxGeometry>
        </mxCell>
        <mxCell id="HrWQXQLJa8o109kUoc0N-134" value="" style="endArrow=none;html=1;rounded=0;entryX=0.5;entryY=1;entryDx=0;entryDy=0;" parent="WIyWlLk6GJQsqaUBKTNV-1" edge="1">
          <mxGeometry width="50" height="50" relative="1" as="geometry">
            <mxPoint x="240" y="-210" as="sourcePoint" />
            <mxPoint x="200" y="-283" as="targetPoint" />
          </mxGeometry>
        </mxCell>
        <mxCell id="HrWQXQLJa8o109kUoc0N-135" value="" style="endArrow=none;html=1;rounded=0;entryX=0.5;entryY=1;entryDx=0;entryDy=0;" parent="WIyWlLk6GJQsqaUBKTNV-1" edge="1">
          <mxGeometry width="50" height="50" relative="1" as="geometry">
            <mxPoint x="225" y="-180" as="sourcePoint" />
            <mxPoint x="185" y="-214" as="targetPoint" />
          </mxGeometry>
        </mxCell>
        <mxCell id="LCO-Q6_ydGcM2-XTaxpA-0" value="" style="ellipse;whiteSpace=wrap;html=1;" parent="WIyWlLk6GJQsqaUBKTNV-1" vertex="1">
          <mxGeometry x="369" y="-330" width="90" height="60" as="geometry" />
        </mxCell>
        <mxCell id="HrWQXQLJa8o109kUoc0N-136" value="N&lt;span style=&quot;color: rgba(0, 0, 0, 0); font-family: monospace; font-size: 0px; text-align: start; text-wrap-mode: nowrap;&quot;&gt;%3CmxGraphModel%3E%3Croot%3E%3CmxCell%20id%3D%220%22%2F%3E%3CmxCell%20id%3D%221%22%20parent%3D%220%22%2F%3E%3CmxCell%20id%3D%222%22%20value%3D%22M%22%20style%3D%22text%3Bhtml%3D1%3Balign%3Dcenter%3BverticalAlign%3Dmiddle%3BwhiteSpace%3Dwrap%3Brounded%3D0%3B%22%20vertex%3D%221%22%20parent%3D%221%22%3E%3CmxGeometry%20x%3D%22580%22%20y%3D%22140%22%20width%3D%2260%22%20height%3D%2230%22%20as%3D%22geometry%22%2F%3E%3C%2FmxCell%3E%3C%2Froot%3E%3C%2FmxGraphModel%3E&lt;/span&gt;" style="text;html=1;align=center;verticalAlign=middle;whiteSpace=wrap;rounded=0;" parent="WIyWlLk6GJQsqaUBKTNV-1" vertex="1">
          <mxGeometry x="270" y="30" width="60" height="30" as="geometry" />
        </mxCell>
        <mxCell id="HrWQXQLJa8o109kUoc0N-137" value="1" style="text;html=1;align=center;verticalAlign=middle;whiteSpace=wrap;rounded=0;" parent="WIyWlLk6GJQsqaUBKTNV-1" vertex="1">
          <mxGeometry x="280" y="-60" width="60" height="30" as="geometry" />
        </mxCell>
        <mxCell id="LCO-Q6_ydGcM2-XTaxpA-1" value="Phone_#" style="ellipse;whiteSpace=wrap;html=1;" parent="WIyWlLk6GJQsqaUBKTNV-1" vertex="1">
          <mxGeometry x="379" y="-320" width="70" height="40" as="geometry" />
        </mxCell>
        <mxCell id="LCO-Q6_ydGcM2-XTaxpA-4" value="" style="ellipse;whiteSpace=wrap;html=1;" parent="WIyWlLk6GJQsqaUBKTNV-1" vertex="1">
          <mxGeometry x="1140" y="-80" width="90" height="60" as="geometry" />
        </mxCell>
        <mxCell id="LCO-Q6_ydGcM2-XTaxpA-5" value="Phone_#" style="ellipse;whiteSpace=wrap;html=1;" parent="WIyWlLk6GJQsqaUBKTNV-1" vertex="1">
          <mxGeometry x="1150" y="-70" width="70" height="40" as="geometry" />
        </mxCell>
        <mxCell id="LCO-Q6_ydGcM2-XTaxpA-6" value="" style="ellipse;whiteSpace=wrap;html=1;" parent="WIyWlLk6GJQsqaUBKTNV-1" vertex="1">
          <mxGeometry x="1140" y="-195" width="90" height="60" as="geometry" />
        </mxCell>
        <mxCell id="LCO-Q6_ydGcM2-XTaxpA-7" value="Email" style="ellipse;whiteSpace=wrap;html=1;" parent="WIyWlLk6GJQsqaUBKTNV-1" vertex="1">
          <mxGeometry x="1150" y="-185" width="70" height="40" as="geometry" />
        </mxCell>
        <mxCell id="LCO-Q6_ydGcM2-XTaxpA-8" value="" style="ellipse;whiteSpace=wrap;html=1;" parent="WIyWlLk6GJQsqaUBKTNV-1" vertex="1">
          <mxGeometry x="1886.25" y="826" width="90" height="60" as="geometry" />
        </mxCell>
        <mxCell id="LCO-Q6_ydGcM2-XTaxpA-9" value="Phone_#" style="ellipse;whiteSpace=wrap;html=1;" parent="WIyWlLk6GJQsqaUBKTNV-1" vertex="1">
          <mxGeometry x="1896.25" y="836" width="70" height="40" as="geometry" />
        </mxCell>
        <mxCell id="DI6oxZLG0wE0e1uGwIm_-14" value="&lt;font style=&quot;font-size: 18px;&quot;&gt;Cash&lt;/font&gt;" style="rounded=0;whiteSpace=wrap;html=1;" parent="WIyWlLk6GJQsqaUBKTNV-1" vertex="1">
          <mxGeometry x="690" y="-630" width="120" height="60" as="geometry" />
        </mxCell>
        <mxCell id="DI6oxZLG0wE0e1uGwIm_-15" value="Payment_Method" style="rounded=0;whiteSpace=wrap;html=1;" parent="WIyWlLk6GJQsqaUBKTNV-1" vertex="1">
          <mxGeometry x="929" y="-380" width="120" height="60" as="geometry" />
        </mxCell>
        <mxCell id="DI6oxZLG0wE0e1uGwIm_-16" value="&lt;span style=&quot;font-size: 18px;&quot;&gt;Check&lt;/span&gt;" style="rounded=0;whiteSpace=wrap;html=1;" parent="WIyWlLk6GJQsqaUBKTNV-1" vertex="1">
          <mxGeometry x="880" y="-630" width="120" height="60" as="geometry" />
        </mxCell>
        <mxCell id="DI6oxZLG0wE0e1uGwIm_-18" value="" style="endArrow=none;html=1;rounded=0;entryX=0.5;entryY=0;entryDx=0;entryDy=0;" parent="WIyWlLk6GJQsqaUBKTNV-1" target="DI6oxZLG0wE0e1uGwIm_-19" edge="1">
          <mxGeometry width="50" height="50" relative="1" as="geometry">
            <mxPoint x="910" y="-630" as="sourcePoint" />
            <mxPoint x="870" y="-690" as="targetPoint" />
          </mxGeometry>
        </mxCell>
        <mxCell id="DI6oxZLG0wE0e1uGwIm_-19" value="&lt;u&gt;Account_#&lt;/u&gt;" style="ellipse;whiteSpace=wrap;html=1;direction=west;flipH=1;flipV=1;" parent="WIyWlLk6GJQsqaUBKTNV-1" vertex="1">
          <mxGeometry x="797" y="-730" width="70" height="40" as="geometry" />
        </mxCell>
        <mxCell id="DI6oxZLG0wE0e1uGwIm_-20" value="&lt;u&gt;Routing_#&lt;/u&gt;" style="ellipse;whiteSpace=wrap;html=1;direction=west;flipH=1;flipV=1;" parent="WIyWlLk6GJQsqaUBKTNV-1" vertex="1">
          <mxGeometry x="909.38" y="-730" width="70" height="40" as="geometry" />
        </mxCell>
        <mxCell id="DI6oxZLG0wE0e1uGwIm_-21" value="" style="endArrow=none;html=1;rounded=0;entryX=0.5;entryY=0;entryDx=0;entryDy=0;" parent="WIyWlLk6GJQsqaUBKTNV-1" target="DI6oxZLG0wE0e1uGwIm_-20" edge="1">
          <mxGeometry width="50" height="50" relative="1" as="geometry">
            <mxPoint x="950" y="-629" as="sourcePoint" />
            <mxPoint x="1000" y="-679" as="targetPoint" />
          </mxGeometry>
        </mxCell>
        <mxCell id="DI6oxZLG0wE0e1uGwIm_-25" value="" style="endArrow=none;html=1;rounded=0;" parent="WIyWlLk6GJQsqaUBKTNV-1" target="DI6oxZLG0wE0e1uGwIm_-26" edge="1">
          <mxGeometry width="50" height="50" relative="1" as="geometry">
            <mxPoint x="980" y="-380" as="sourcePoint" />
            <mxPoint x="980" y="-440" as="targetPoint" />
          </mxGeometry>
        </mxCell>
        <mxCell id="DI6oxZLG0wE0e1uGwIm_-26" value="U" style="ellipse;whiteSpace=wrap;html=1;aspect=fixed;" parent="WIyWlLk6GJQsqaUBKTNV-1" vertex="1">
          <mxGeometry x="970" y="-440" width="20" height="20" as="geometry" />
        </mxCell>
        <mxCell id="DI6oxZLG0wE0e1uGwIm_-27" value="" style="endArrow=none;html=1;rounded=0;entryX=0.5;entryY=1;entryDx=0;entryDy=0;" parent="WIyWlLk6GJQsqaUBKTNV-1" target="HrWQXQLJa8o109kUoc0N-43" edge="1">
          <mxGeometry width="50" height="50" relative="1" as="geometry">
            <mxPoint x="990" y="-440" as="sourcePoint" />
            <mxPoint x="1040" y="-490" as="targetPoint" />
          </mxGeometry>
        </mxCell>
        <mxCell id="DI6oxZLG0wE0e1uGwIm_-28" value="" style="endArrow=none;html=1;rounded=0;entryX=0.5;entryY=1;entryDx=0;entryDy=0;" parent="WIyWlLk6GJQsqaUBKTNV-1" target="DI6oxZLG0wE0e1uGwIm_-16" edge="1">
          <mxGeometry width="50" height="50" relative="1" as="geometry">
            <mxPoint x="979.38" y="-440" as="sourcePoint" />
            <mxPoint x="1029.38" y="-490" as="targetPoint" />
          </mxGeometry>
        </mxCell>
        <mxCell id="DI6oxZLG0wE0e1uGwIm_-29" value="" style="endArrow=none;html=1;rounded=0;entryX=0.5;entryY=1;entryDx=0;entryDy=0;exitX=0;exitY=0.5;exitDx=0;exitDy=0;" parent="WIyWlLk6GJQsqaUBKTNV-1" source="DI6oxZLG0wE0e1uGwIm_-26" edge="1">
          <mxGeometry width="50" height="50" relative="1" as="geometry">
            <mxPoint x="819.38" y="-440" as="sourcePoint" />
            <mxPoint x="780" y="-570" as="targetPoint" />
          </mxGeometry>
        </mxCell>
        <mxCell id="DI6oxZLG0wE0e1uGwIm_-31" value="&lt;span style=&quot;font-size: 19px;&quot;&gt;Worker&lt;/span&gt;" style="rounded=0;whiteSpace=wrap;html=1;" parent="WIyWlLk6GJQsqaUBKTNV-1" vertex="1">
          <mxGeometry x="1390" y="645" width="120" height="60" as="geometry" />
        </mxCell>
        <mxCell id="DI6oxZLG0wE0e1uGwIm_-32" value="" style="endArrow=none;html=1;rounded=0;" parent="WIyWlLk6GJQsqaUBKTNV-1" edge="1">
          <mxGeometry width="50" height="50" relative="1" as="geometry">
            <mxPoint x="1620" y="800" as="sourcePoint" />
            <mxPoint x="1676.25" y="800" as="targetPoint" />
          </mxGeometry>
        </mxCell>
        <mxCell id="DI6oxZLG0wE0e1uGwIm_-33" value="&lt;font style=&quot;font-size: 17px;&quot;&gt;D&lt;/font&gt;" style="ellipse;whiteSpace=wrap;html=1;aspect=fixed;" parent="WIyWlLk6GJQsqaUBKTNV-1" vertex="1">
          <mxGeometry x="1590" y="783.5" width="30" height="30" as="geometry" />
        </mxCell>
        <mxCell id="DI6oxZLG0wE0e1uGwIm_-34" value="Is_Guarded" style="rhombus;whiteSpace=wrap;html=1;" parent="WIyWlLk6GJQsqaUBKTNV-1" vertex="1">
          <mxGeometry x="990" y="625" width="80" height="80" as="geometry" />
        </mxCell>
        <mxCell id="DI6oxZLG0wE0e1uGwIm_-35" style="edgeStyle=orthogonalEdgeStyle;rounded=0;orthogonalLoop=1;jettySize=auto;html=1;exitX=0.5;exitY=1;exitDx=0;exitDy=0;" parent="WIyWlLk6GJQsqaUBKTNV-1" source="DI6oxZLG0wE0e1uGwIm_-34" target="DI6oxZLG0wE0e1uGwIm_-34" edge="1">
          <mxGeometry relative="1" as="geometry" />
        </mxCell>
        <mxCell id="DI6oxZLG0wE0e1uGwIm_-36" value="&lt;span style=&quot;font-size: 19px;&quot;&gt;Guard&lt;/span&gt;" style="rounded=0;whiteSpace=wrap;html=1;" parent="WIyWlLk6GJQsqaUBKTNV-1" vertex="1">
          <mxGeometry x="1360.62" y="745" width="120" height="60" as="geometry" />
        </mxCell>
        <mxCell id="DI6oxZLG0wE0e1uGwIm_-37" value="" style="endArrow=none;html=1;rounded=0;exitX=1;exitY=1;exitDx=0;exitDy=0;" parent="WIyWlLk6GJQsqaUBKTNV-1" source="DI6oxZLG0wE0e1uGwIm_-33" edge="1">
          <mxGeometry width="50" height="50" relative="1" as="geometry">
            <mxPoint x="1630" y="860" as="sourcePoint" />
            <mxPoint x="1680" y="810" as="targetPoint" />
          </mxGeometry>
        </mxCell>
        <mxCell id="DI6oxZLG0wE0e1uGwIm_-38" value="" style="endArrow=none;html=1;rounded=0;exitX=1;exitY=0.5;exitDx=0;exitDy=0;" parent="WIyWlLk6GJQsqaUBKTNV-1" source="00jODEar77DZwwpebo26-48" edge="1">
          <mxGeometry width="50" height="50" relative="1" as="geometry">
            <mxPoint x="1545" y="855" as="sourcePoint" />
            <mxPoint x="1595" y="805" as="targetPoint" />
          </mxGeometry>
        </mxCell>
        <mxCell id="DI6oxZLG0wE0e1uGwIm_-40" value="" style="endArrow=none;html=1;rounded=0;exitX=1;exitY=0.5;exitDx=0;exitDy=0;entryX=0;entryY=0.5;entryDx=0;entryDy=0;" parent="WIyWlLk6GJQsqaUBKTNV-1" source="DI6oxZLG0wE0e1uGwIm_-36" target="DI6oxZLG0wE0e1uGwIm_-33" edge="1">
          <mxGeometry width="50" height="50" relative="1" as="geometry">
            <mxPoint x="1470" y="858.5" as="sourcePoint" />
            <mxPoint x="1595" y="783.5" as="targetPoint" />
          </mxGeometry>
        </mxCell>
        <mxCell id="DI6oxZLG0wE0e1uGwIm_-41" value="" style="endArrow=none;html=1;rounded=0;exitX=1;exitY=0.5;exitDx=0;exitDy=0;entryX=0;entryY=0.5;entryDx=0;entryDy=0;" parent="WIyWlLk6GJQsqaUBKTNV-1" source="DI6oxZLG0wE0e1uGwIm_-31" edge="1">
          <mxGeometry width="50" height="50" relative="1" as="geometry">
            <mxPoint x="1490" y="759.5" as="sourcePoint" />
            <mxPoint x="1599" y="783.5" as="targetPoint" />
          </mxGeometry>
        </mxCell>
        <mxCell id="DI6oxZLG0wE0e1uGwIm_-42" value="" style="endArrow=none;html=1;rounded=0;exitX=1;exitY=0.5;exitDx=0;exitDy=0;entryX=0;entryY=0.5;entryDx=0;entryDy=0;" parent="WIyWlLk6GJQsqaUBKTNV-1" source="DI6oxZLG0wE0e1uGwIm_-34" target="DI6oxZLG0wE0e1uGwIm_-36" edge="1">
          <mxGeometry width="50" height="50" relative="1" as="geometry">
            <mxPoint x="1150" y="710" as="sourcePoint" />
            <mxPoint x="1200" y="660" as="targetPoint" />
          </mxGeometry>
        </mxCell>
        <mxCell id="DI6oxZLG0wE0e1uGwIm_-43" value="" style="endArrow=none;html=1;rounded=0;entryX=0.881;entryY=0.95;entryDx=0;entryDy=0;entryPerimeter=0;exitX=0;exitY=0.5;exitDx=0;exitDy=0;" parent="WIyWlLk6GJQsqaUBKTNV-1" source="DI6oxZLG0wE0e1uGwIm_-34" target="00jODEar77DZwwpebo26-37" edge="1">
          <mxGeometry width="50" height="50" relative="1" as="geometry">
            <mxPoint x="1150" y="710" as="sourcePoint" />
            <mxPoint x="1200" y="660" as="targetPoint" />
          </mxGeometry>
        </mxCell>
        <mxCell id="DI6oxZLG0wE0e1uGwIm_-45" value="" style="endArrow=none;html=1;rounded=0;entryX=1;entryY=1;entryDx=0;entryDy=0;exitX=0;exitY=0;exitDx=0;exitDy=0;" parent="WIyWlLk6GJQsqaUBKTNV-1" source="DI6oxZLG0wE0e1uGwIm_-34" target="00jODEar77DZwwpebo26-37" edge="1">
          <mxGeometry width="50" height="50" relative="1" as="geometry">
            <mxPoint x="1150" y="710" as="sourcePoint" />
            <mxPoint x="1200" y="660" as="targetPoint" />
          </mxGeometry>
        </mxCell>
        <mxCell id="DI6oxZLG0wE0e1uGwIm_-46" value="N" style="text;html=1;align=center;verticalAlign=middle;whiteSpace=wrap;rounded=0;" parent="WIyWlLk6GJQsqaUBKTNV-1" vertex="1">
          <mxGeometry x="980" y="609" width="60" height="30" as="geometry" />
        </mxCell>
        <mxCell id="DI6oxZLG0wE0e1uGwIm_-47" value="1" style="text;html=1;align=center;verticalAlign=middle;whiteSpace=wrap;rounded=0;" parent="WIyWlLk6GJQsqaUBKTNV-1" vertex="1">
          <mxGeometry x="1060" y="640" width="60" height="30" as="geometry" />
        </mxCell>
        <mxCell id="DI6oxZLG0wE0e1uGwIm_-48" value="" style="endArrow=none;html=1;rounded=0;exitX=1;exitY=0.75;exitDx=0;exitDy=0;" parent="WIyWlLk6GJQsqaUBKTNV-1" edge="1">
          <mxGeometry width="50" height="50" relative="1" as="geometry">
            <mxPoint x="1770" y="826" as="sourcePoint" />
            <mxPoint x="1809.6930766973278" y="861.7237690275947" as="targetPoint" />
          </mxGeometry>
        </mxCell>
        <mxCell id="DI6oxZLG0wE0e1uGwIm_-50" value="Salary" style="ellipse;whiteSpace=wrap;html=1;align=center;" parent="WIyWlLk6GJQsqaUBKTNV-1" vertex="1">
          <mxGeometry x="1760" y="860" width="100" height="40" as="geometry" />
        </mxCell>
        <mxCell id="DI6oxZLG0wE0e1uGwIm_-51" value="Employees" style="ellipse;whiteSpace=wrap;html=1;align=center;dashed=1;" parent="WIyWlLk6GJQsqaUBKTNV-1" vertex="1">
          <mxGeometry x="660" y="300" width="80" height="35" as="geometry" />
        </mxCell>
        <mxCell id="DI6oxZLG0wE0e1uGwIm_-53" value="" style="endArrow=none;html=1;rounded=0;entryX=0.5;entryY=1;entryDx=0;entryDy=0;exitX=0.25;exitY=0;exitDx=0;exitDy=0;" parent="WIyWlLk6GJQsqaUBKTNV-1" source="00jODEar77DZwwpebo26-37" target="DI6oxZLG0wE0e1uGwIm_-51" edge="1">
          <mxGeometry width="50" height="50" relative="1" as="geometry">
            <mxPoint x="910" y="480" as="sourcePoint" />
            <mxPoint x="960" y="430" as="targetPoint" />
          </mxGeometry>
        </mxCell>
        <mxCell id="DI6oxZLG0wE0e1uGwIm_-58" value="" style="endArrow=none;html=1;rounded=0;entryX=0;entryY=0.5;entryDx=0;entryDy=0;" parent="WIyWlLk6GJQsqaUBKTNV-1" source="00jODEar77DZwwpebo26-62" target="HrWQXQLJa8o109kUoc0N-30" edge="1">
          <mxGeometry width="50" height="50" relative="1" as="geometry">
            <mxPoint x="627" y="172" as="sourcePoint" />
            <mxPoint x="900" y="-40" as="targetPoint" />
          </mxGeometry>
        </mxCell>
        <mxCell id="HrWQXQLJa8o109kUoc0N-30" value="M" style="text;html=1;align=center;verticalAlign=middle;whiteSpace=wrap;rounded=0;" parent="WIyWlLk6GJQsqaUBKTNV-1" vertex="1">
          <mxGeometry x="630" y="157.5" width="60" height="30" as="geometry" />
        </mxCell>
        <mxCell id="zpXemomxR1wJLNFUy5ir-0" value="Total_Authors" style="ellipse;whiteSpace=wrap;html=1;align=center;dashed=1;" parent="WIyWlLk6GJQsqaUBKTNV-1" vertex="1">
          <mxGeometry x="90" y="247.5" width="100" height="40" as="geometry" />
        </mxCell>
        <mxCell id="zpXemomxR1wJLNFUy5ir-1" value="" style="endArrow=none;html=1;rounded=0;exitX=0.5;exitY=0;exitDx=0;exitDy=0;entryX=0;entryY=1;entryDx=0;entryDy=0;" parent="WIyWlLk6GJQsqaUBKTNV-1" source="zpXemomxR1wJLNFUy5ir-0" target="00jODEar77DZwwpebo26-1" edge="1">
          <mxGeometry width="50" height="50" relative="1" as="geometry">
            <mxPoint x="450" y="160" as="sourcePoint" />
            <mxPoint x="500" y="110" as="targetPoint" />
          </mxGeometry>
        </mxCell>
        <mxCell id="zpXemomxR1wJLNFUy5ir-2" value="Total_Orders" style="ellipse;whiteSpace=wrap;html=1;align=center;dashed=1;" parent="WIyWlLk6GJQsqaUBKTNV-1" vertex="1">
          <mxGeometry x="727" y="-60" width="100" height="40" as="geometry" />
        </mxCell>
        <mxCell id="zpXemomxR1wJLNFUy5ir-3" value="" style="endArrow=none;html=1;rounded=0;exitX=1;exitY=0.5;exitDx=0;exitDy=0;entryX=0;entryY=0.5;entryDx=0;entryDy=0;" parent="WIyWlLk6GJQsqaUBKTNV-1" source="zpXemomxR1wJLNFUy5ir-2" target="00jODEar77DZwwpebo26-23" edge="1">
          <mxGeometry width="50" height="50" relative="1" as="geometry">
            <mxPoint x="1000" y="-70" as="sourcePoint" />
            <mxPoint x="1050" y="-120" as="targetPoint" />
          </mxGeometry>
        </mxCell>
        <mxCell id="zpXemomxR1wJLNFUy5ir-4" value="Used_Space" style="ellipse;whiteSpace=wrap;html=1;align=center;dashed=1;" parent="WIyWlLk6GJQsqaUBKTNV-1" vertex="1">
          <mxGeometry x="570" y="546.5" width="80" height="35" as="geometry" />
        </mxCell>
        <mxCell id="zpXemomxR1wJLNFUy5ir-5" value="" style="endArrow=none;html=1;rounded=0;exitX=0.588;exitY=-0.043;exitDx=0;exitDy=0;exitPerimeter=0;entryX=0;entryY=1;entryDx=0;entryDy=0;" parent="WIyWlLk6GJQsqaUBKTNV-1" source="zpXemomxR1wJLNFUy5ir-4" target="00jODEar77DZwwpebo26-37" edge="1">
          <mxGeometry width="50" height="50" relative="1" as="geometry">
            <mxPoint x="830" y="400" as="sourcePoint" />
            <mxPoint x="880" y="350" as="targetPoint" />
          </mxGeometry>
        </mxCell>
      </root>
    </mxGraphModel>
  </diagram>
</mxfile>
